{
    "asset" : {
        "generator" : "Khronos glTF Blender I/O v1.4.40",
        "version" : "2.0"
    },
    "scene" : 0,
    "scenes" : [
        {
            "name" : "Scene",
            "nodes" : [
                0,
                1,
                2,
                3,
                4,
                5,
                6,
                7,
                8,
                9,
                10
            ]
        }
    ],
    "nodes" : [
        {
            "name" : "Light",
            "rotation" : [
                0.16907575726509094,
                0.7558803558349609,
                -0.27217137813568115,
                0.570947527885437
            ],
            "translation" : [
                4.076245307922363,
                5.903861999511719,
                -1.0054539442062378
            ]
        },
        {
            "name" : "Camera",
            "rotation" : [
                0.483536034822464,
                0.33687159419059753,
                -0.20870360732078552,
                0.7804827094078064
            ],
            "translation" : [
                7.358891487121582,
                4.958309173583984,
                6.925790786743164
            ]
        },
        {
            "mesh" : 0,
            "name" : "path14",
            "rotation" : [
                0.7071068286895752,
                0,
                0,
                0.7071068286895752
            ],
            "scale" : [
                0.5,
                0.5,
                0.5
            ],
            "translation" : [
                -0.06499999761581421,
                -0.02500000037252903,
                0.006000000052154064
            ]
        },
        {
            "mesh" : 1,
            "name" : "path16",
            "rotation" : [
                0.7071068286895752,
                0,
                0,
                0.7071068286895752
            ],
            "scale" : [
                0.5,
                0.5,
                0.5
            ],
            "translation" : [
                -0.06499999761581421,
                -0.02500000037252903,
                0.006000000052154064
            ]
        },
        {
            "mesh" : 2,
            "name" : "path18",
            "rotation" : [
                0.7071068286895752,
                0,
                0,
                0.7071068286895752
            ],
            "scale" : [
                0.5,
                0.5,
                0.5
            ],
            "translation" : [
                -0.06499999761581421,
                -0.02500000037252903,
                0.006000000052154064
            ]
        },
        {
            "mesh" : 3,
            "name" : "path20",
            "rotation" : [
                0.7071068286895752,
                0,
                0,
                0.7071068286895752
            ],
            "scale" : [
                0.5,
                0.5,
                0.5
            ],
            "translation" : [
                -0.06499999761581421,
                -0.02500000037252903,
                0.006000000052154064
            ]
        },
        {
            "mesh" : 4,
            "name" : "path22",
            "rotation" : [
                0.7071068286895752,
                0,
                0,
                0.7071068286895752
            ],
            "scale" : [
                0.5,
                0.5,
                0.5
            ],
            "translation" : [
                -0.06499999761581421,
                -0.02500000037252903,
                0.006000000052154064
            ]
        },
        {
            "mesh" : 5,
            "name" : "path24",
            "rotation" : [
                0.7071068286895752,
                0,
                0,
                0.7071068286895752
            ],
            "scale" : [
                0.5,
                0.5,
                0.5
            ],
            "translation" : [
                -0.06499999761581421,
                -0.02500000037252903,
                0.006000000052154064
            ]
        },
        {
            "mesh" : 6,
            "name" : "path26",
            "rotation" : [
                0.7071068286895752,
                0,
                0,
                0.7071068286895752
            ],
            "scale" : [
                0.5,
                0.5,
                0.5
            ],
            "translation" : [
                -0.06499999761581421,
                -0.02500000037252903,
                0.006000000052154064
            ]
        },
        {
            "mesh" : 7,
            "name" : "path28",
            "rotation" : [
                0.7071068286895752,
                0,
                0,
                0.7071068286895752
            ],
            "scale" : [
                0.5,
                0.5,
                0.5
            ],
            "translation" : [
                -0.06499999761581421,
                -0.02500000037252903,
                0.006000000052154064
            ]
        },
        {
            "mesh" : 8,
            "name" : "path30",
            "rotation" : [
                0.7071068286895752,
                0,
                0,
                0.7071068286895752
            ],
            "scale" : [
                0.5,
                0.5,
                0.5
            ],
            "translation" : [
                -0.06499999761581421,
                -0.02500000037252903,
                0.006000000052154064
            ]
        }
    ],
    "materials" : [
        {
            "doubleSided" : true,
            "name" : "SVGMat.002",
            "pbrMetallicRoughness" : {
                "baseColorFactor" : [
                    0,
                    0,
                    0,
                    1
                ],
                "metallicFactor" : 0,
                "roughnessFactor" : 0.4000000059604645
            }
        },
        {
            "doubleSided" : true,
            "name" : "SVGMat.003",
            "pbrMetallicRoughness" : {
                "baseColorFactor" : [
                    0,
                    0,
                    0,
                    1
                ],
                "metallicFactor" : 0,
                "roughnessFactor" : 0.4000000059604645
            }
        },
        {
            "doubleSided" : true,
            "name" : "SVGMat.004",
            "pbrMetallicRoughness" : {
                "baseColorFactor" : [
                    0,
                    0,
                    0,
                    1
                ],
                "metallicFactor" : 0,
                "roughnessFactor" : 0.4000000059604645
            }
        },
        {
            "doubleSided" : true,
            "name" : "SVGMat.005",
            "pbrMetallicRoughness" : {
                "baseColorFactor" : [
                    0,
                    0,
                    0,
                    1
                ],
                "metallicFactor" : 0,
                "roughnessFactor" : 0.4000000059604645
            }
        },
        {
            "doubleSided" : true,
            "name" : "SVGMat.006",
            "pbrMetallicRoughness" : {
                "baseColorFactor" : [
                    0,
                    0,
                    0,
                    1
                ],
                "metallicFactor" : 0,
                "roughnessFactor" : 0.4000000059604645
            }
        },
        {
            "doubleSided" : true,
            "name" : "SVGMat.007",
            "pbrMetallicRoughness" : {
                "baseColorFactor" : [
                    0,
                    0,
                    0,
                    1
                ],
                "metallicFactor" : 0,
                "roughnessFactor" : 0.4000000059604645
            }
        },
        {
            "doubleSided" : true,
            "name" : "SVGMat.008",
            "pbrMetallicRoughness" : {
                "baseColorFactor" : [
                    0,
                    0,
                    0,
                    1
                ],
                "metallicFactor" : 0,
                "roughnessFactor" : 0.4000000059604645
            }
        },
        {
            "doubleSided" : true,
            "name" : "SVGMat.009",
            "pbrMetallicRoughness" : {
                "baseColorFactor" : [
                    0,
                    0,
                    0,
                    1
                ],
                "metallicFactor" : 0,
                "roughnessFactor" : 0.4000000059604645
            }
        },
        {
            "doubleSided" : true,
            "name" : "SVGMat.010",
            "pbrMetallicRoughness" : {
                "baseColorFactor" : [
                    0,
                    0,
                    0,
                    1
                ],
                "metallicFactor" : 0,
                "roughnessFactor" : 0.4000000059604645
            }
        }
    ],
    "meshes" : [
        {
            "name" : "path14",
            "primitives" : [
                {
                    "attributes" : {
                        "POSITION" : 0,
                        "NORMAL" : 1,
                        "TEXCOORD_0" : 2
                    },
                    "indices" : 3,
                    "material" : 0
                }
            ]
        },
        {
            "name" : "path16",
            "primitives" : [
                {
                    "attributes" : {
                        "POSITION" : 4,
                        "NORMAL" : 5,
                        "TEXCOORD_0" : 6
                    },
                    "indices" : 7,
                    "material" : 1
                }
            ]
        },
        {
            "name" : "path18",
            "primitives" : [
                {
                    "attributes" : {
                        "POSITION" : 8,
                        "NORMAL" : 9,
                        "TEXCOORD_0" : 10
                    },
                    "indices" : 11,
                    "material" : 2
                }
            ]
        },
        {
            "name" : "path20",
            "primitives" : [
                {
                    "attributes" : {
                        "POSITION" : 12,
                        "NORMAL" : 13,
                        "TEXCOORD_0" : 14
                    },
                    "indices" : 15,
                    "material" : 3
                }
            ]
        },
        {
            "name" : "path22",
            "primitives" : [
                {
                    "attributes" : {
                        "POSITION" : 16,
                        "NORMAL" : 17,
                        "TEXCOORD_0" : 18
                    },
                    "indices" : 19,
                    "material" : 4
                }
            ]
        },
        {
            "name" : "path24",
            "primitives" : [
                {
                    "attributes" : {
                        "POSITION" : 20,
                        "NORMAL" : 21,
                        "TEXCOORD_0" : 22
                    },
                    "indices" : 23,
                    "material" : 5
                }
            ]
        },
        {
            "name" : "path26",
            "primitives" : [
                {
                    "attributes" : {
                        "POSITION" : 24,
                        "NORMAL" : 25,
                        "TEXCOORD_0" : 26
                    },
                    "indices" : 27,
                    "material" : 6
                }
            ]
        },
        {
            "name" : "path28",
            "primitives" : [
                {
                    "attributes" : {
                        "POSITION" : 28,
                        "NORMAL" : 29,
                        "TEXCOORD_0" : 30
                    },
                    "indices" : 31,
                    "material" : 7
                }
            ]
        },
        {
            "name" : "path30",
            "primitives" : [
                {
                    "attributes" : {
                        "POSITION" : 32,
                        "NORMAL" : 33,
                        "TEXCOORD_0" : 34
                    },
                    "indices" : 35,
                    "material" : 8
                }
            ]
        }
    ],
    "accessors" : [
        {
            "bufferView" : 0,
            "componentType" : 5126,
            "count" : 1162,
            "max" : [
                0.03941091150045395,
                0,
                -0.01812625676393509
            ],
            "min" : [
                0.0010074276942759752,
                -0.024000000208616257,
                -0.09882202744483948
            ],
            "type" : "VEC3"
        },
        {
            "bufferView" : 1,
            "componentType" : 5126,
            "count" : 1162,
            "type" : "VEC3"
        },
        {
            "bufferView" : 2,
            "componentType" : 5126,
            "count" : 1162,
            "type" : "VEC2"
        },
        {
            "bufferView" : 3,
            "componentType" : 5123,
            "count" : 2364,
            "type" : "SCALAR"
        },
        {
            "bufferView" : 4,
            "componentType" : 5126,
            "count" : 656,
            "max" : [
                0.05690422281622887,
                0,
                -0.02323131263256073
            ],
            "min" : [
                0.034855250269174576,
                -0.024000000208616257,
                -0.062190983444452286
            ],
            "type" : "VEC3"
        },
        {
            "bufferView" : 5,
            "componentType" : 5126,
            "count" : 656,
            "type" : "VEC3"
        },
        {
            "bufferView" : 6,
            "componentType" : 5126,
            "count" : 656,
            "type" : "VEC2"
        },
        {
            "bufferView" : 7,
            "componentType" : 5123,
            "count" : 1344,
            "type" : "SCALAR"
        },
        {
            "bufferView" : 8,
            "componentType" : 5126,
            "count" : 690,
            "max" : [
                0.07972759753465652,
                0,
                -0.023141756653785706
            ],
            "min" : [
                0.052348602563142776,
                -0.024000000208616257,
                -0.05663811415433884
            ],
            "type" : "VEC3"
        },
        {
            "bufferView" : 9,
            "componentType" : 5126,
            "count" : 690,
            "type" : "VEC3"
        },
        {
            "bufferView" : 10,
            "componentType" : 5126,
            "count" : 690,
            "type" : "VEC2"
        },
        {
            "bufferView" : 11,
            "componentType" : 5123,
            "count" : 1404,
            "type" : "SCALAR"
        },
        {
            "bufferView" : 12,
            "componentType" : 5126,
            "count" : 876,
            "max" : [
                0.1512044221162796,
                0,
                -0.016782820224761963
            ],
            "min" : [
                0.09794976562261581,
                -0.024000000208616257,
                -0.09040315449237823
            ],
            "type" : "VEC3"
        },
        {
            "bufferView" : 13,
            "componentType" : 5126,
            "count" : 876,
            "type" : "VEC3"
        },
        {
            "bufferView" : 14,
            "componentType" : 5126,
            "count" : 876,
            "type" : "VEC2"
        },
        {
            "bufferView" : 15,
            "componentType" : 5123,
            "count" : 1842,
            "type" : "SCALAR"
        },
        {
            "bufferView" : 16,
            "componentType" : 5126,
            "count" : 914,
            "max" : [
                0.16964437067508698,
                0,
                -0.02323131263256073
            ],
            "min" : [
                0.14072659611701965,
                -0.024000000208616257,
                -0.06129536032676697
            ],
            "type" : "VEC3"
        },
        {
            "bufferView" : 17,
            "componentType" : 5126,
            "count" : 914,
            "type" : "VEC3"
        },
        {
            "bufferView" : 18,
            "componentType" : 5126,
            "count" : 914,
            "type" : "VEC2"
        },
        {
            "bufferView" : 19,
            "componentType" : 5123,
            "count" : 1920,
            "type" : "SCALAR"
        },
        {
            "bufferView" : 20,
            "componentType" : 5126,
            "count" : 1076,
            "max" : [
                0.18933452665805817,
                0,
                -0.000840701162815094
            ],
            "min" : [
                0.16008776426315308,
                -0.024000000208616257,
                -0.0680125430226326
            ],
            "type" : "VEC3"
        },
        {
            "bufferView" : 21,
            "componentType" : 5126,
            "count" : 1076,
            "type" : "VEC3"
        },
        {
            "bufferView" : 22,
            "componentType" : 5126,
            "count" : 1076,
            "type" : "VEC2"
        },
        {
            "bufferView" : 23,
            "componentType" : 5123,
            "count" : 2214,
            "type" : "SCALAR"
        },
        {
            "bufferView" : 24,
            "componentType" : 5126,
            "count" : 906,
            "max" : [
                0.21278560161590576,
                0,
                -0.02323131263256073
            ],
            "min" : [
                0.18386782705783844,
                -0.024000000208616257,
                -0.06129536032676697
            ],
            "type" : "VEC3"
        },
        {
            "bufferView" : 25,
            "componentType" : 5126,
            "count" : 906,
            "type" : "VEC3"
        },
        {
            "bufferView" : 26,
            "componentType" : 5126,
            "count" : 906,
            "type" : "VEC2"
        },
        {
            "bufferView" : 27,
            "componentType" : 5123,
            "count" : 1896,
            "type" : "SCALAR"
        },
        {
            "bufferView" : 28,
            "componentType" : 5126,
            "count" : 1018,
            "max" : [
                0.23151908814907074,
                0,
                -0.017320193350315094
            ],
            "min" : [
                0.2082400918006897,
                -0.024000000208616257,
                -0.06380310654640198
            ],
            "type" : "VEC3"
        },
        {
            "bufferView" : 29,
            "componentType" : 5126,
            "count" : 1018,
            "type" : "VEC3"
        },
        {
            "bufferView" : 30,
            "componentType" : 5126,
            "count" : 1018,
            "type" : "VEC2"
        },
        {
            "bufferView" : 31,
            "componentType" : 5123,
            "count" : 2058,
            "type" : "SCALAR"
        },
        {
            "bufferView" : 32,
            "componentType" : 5126,
            "count" : 652,
            "max" : [
                0.24901244044303894,
                0,
                -0.02323131263256073
            ],
            "min" : [
                0.22696347534656525,
                -0.024000000208616257,
                -0.062190983444452286
            ],
            "type" : "VEC3"
        },
        {
            "bufferView" : 33,
            "componentType" : 5126,
            "count" : 652,
            "type" : "VEC3"
        },
        {
            "bufferView" : 34,
            "componentType" : 5126,
            "count" : 652,
            "type" : "VEC2"
        },
        {
            "bufferView" : 35,
            "componentType" : 5123,
            "count" : 1344,
            "type" : "SCALAR"
        }
    ],
    "bufferViews" : [
        {
            "buffer" : 0,
            "byteLength" : 13944,
            "byteOffset" : 0
        },
        {
            "buffer" : 0,
            "byteLength" : 13944,
            "byteOffset" : 13944
        },
        {
            "buffer" : 0,
            "byteLength" : 9296,
            "byteOffset" : 27888
        },
        {
            "buffer" : 0,
            "byteLength" : 4728,
            "byteOffset" : 37184
        },
        {
            "buffer" : 0,
            "byteLength" : 7872,
            "byteOffset" : 41912
        },
        {
            "buffer" : 0,
            "byteLength" : 7872,
            "byteOffset" : 49784
        },
        {
            "buffer" : 0,
            "byteLength" : 5248,
            "byteOffset" : 57656
        },
        {
            "buffer" : 0,
            "byteLength" : 2688,
            "byteOffset" : 62904
        },
        {
            "buffer" : 0,
            "byteLength" : 8280,
            "byteOffset" : 65592
        },
        {
            "buffer" : 0,
            "byteLength" : 8280,
            "byteOffset" : 73872
        },
        {
            "buffer" : 0,
            "byteLength" : 5520,
            "byteOffset" : 82152
        },
        {
            "buffer" : 0,
            "byteLength" : 2808,
            "byteOffset" : 87672
        },
        {
            "buffer" : 0,
            "byteLength" : 10512,
            "byteOffset" : 90480
        },
        {
            "buffer" : 0,
            "byteLength" : 10512,
            "byteOffset" : 100992
        },
        {
            "buffer" : 0,
            "byteLength" : 7008,
            "byteOffset" : 111504
        },
        {
            "buffer" : 0,
            "byteLength" : 3684,
            "byteOffset" : 118512
        },
        {
            "buffer" : 0,
            "byteLength" : 10968,
            "byteOffset" : 122196
        },
        {
            "buffer" : 0,
            "byteLength" : 10968,
            "byteOffset" : 133164
        },
        {
            "buffer" : 0,
            "byteLength" : 7312,
            "byteOffset" : 144132
        },
        {
            "buffer" : 0,
            "byteLength" : 3840,
            "byteOffset" : 151444
        },
        {
            "buffer" : 0,
            "byteLength" : 12912,
            "byteOffset" : 155284
        },
        {
            "buffer" : 0,
            "byteLength" : 12912,
            "byteOffset" : 168196
        },
        {
            "buffer" : 0,
            "byteLength" : 8608,
            "byteOffset" : 181108
        },
        {
            "buffer" : 0,
            "byteLength" : 4428,
            "byteOffset" : 189716
        },
        {
            "buffer" : 0,
            "byteLength" : 10872,
            "byteOffset" : 194144
        },
        {
            "buffer" : 0,
            "byteLength" : 10872,
            "byteOffset" : 205016
        },
        {
            "buffer" : 0,
            "byteLength" : 7248,
            "byteOffset" : 215888
        },
        {
            "buffer" : 0,
            "byteLength" : 3792,
            "byteOffset" : 223136
        },
        {
            "buffer" : 0,
            "byteLength" : 12216,
            "byteOffset" : 226928
        },
        {
            "buffer" : 0,
            "byteLength" : 12216,
            "byteOffset" : 239144
        },
        {
            "buffer" : 0,
            "byteLength" : 8144,
            "byteOffset" : 251360
        },
        {
            "buffer" : 0,
            "byteLength" : 4116,
            "byteOffset" : 259504
        },
        {
            "buffer" : 0,
            "byteLength" : 7824,
            "byteOffset" : 263620
        },
        {
            "buffer" : 0,
            "byteLength" : 7824,
            "byteOffset" : 271444
        },
        {
            "buffer" : 0,
            "byteLength" : 5216,
            "byteOffset" : 279268
        },
        {
            "buffer" : 0,
            "byteLength" : 2688,
            "byteOffset" : 284484
        }
    ],
    "buffers" : [
        {
            "byteLength" : 287172,
            "uri" : "data:application/octet-stream;base64,"
        }
    ]
}
