{
    "asset" : {
        "generator" : "Khronos glTF Blender I/O v1.4.40",
        "version" : "2.0"
    },
    "scene" : 0,
    "scenes" : [
        {
            "name" : "Scene",
            "nodes" : [
                0,
                1,
                2,
                3,
                4
            ]
        }
    ],
    "nodes" : [
        {
            "name" : "Light",
            "rotation" : [
                0.16907575726509094,
                0.7558803558349609,
                -0.27217137813568115,
                0.570947527885437
            ],
            "translation" : [
                4.076245307922363,
                5.903861999511719,
                -1.0054539442062378
            ]
        },
        {
            "name" : "Camera",
            "rotation" : [
                0.483536034822464,
                0.33687159419059753,
                -0.20870360732078552,
                0.7804827094078064
            ],
            "translation" : [
                7.358891487121582,
                4.958309173583984,
                6.925790786743164
            ]
        },
        {
            "mesh" : 0,
            "name" : "path14",
            "rotation" : [
                0.7071068286895752,
                0,
                0,
                0.7071068286895752
            ],
            "scale" : [
                0.5,
                0.5,
                0.5
            ],
            "translation" : [
                -0.06499999761581421,
                -0.02500000037252903,
                0.006000000052154064
            ]
        },
        {
            "mesh" : 1,
            "name" : "path16",
            "rotation" : [
                0.7071068286895752,
                0,
                0,
                0.7071068286895752
            ],
            "scale" : [
                0.5,
                0.5,
                0.5
            ],
            "translation" : [
                -0.06499999761581421,
                -0.02500000037252903,
                0.006000000052154064
            ]
        },
        {
            "mesh" : 2,
            "name" : "path18",
            "rotation" : [
                0.7071068286895752,
                0,
                0,
                0.7071068286895752
            ],
            "scale" : [
                0.5,
                0.5,
                0.5
            ],
            "translation" : [
                -0.06499999761581421,
                -0.02500000037252903,
                0.006000000052154064
            ]
        }
    ],
    "materials" : [
        {
            "doubleSided" : true,
            "name" : "SVGMat.002",
            "pbrMetallicRoughness" : {
                "baseColorFactor" : [
                    0,
                    0,
                    0,
                    1
                ],
                "metallicFactor" : 0,
                "roughnessFactor" : 0.4000000059604645
            }
        },
        {
            "doubleSided" : true,
            "name" : "SVGMat.003",
            "pbrMetallicRoughness" : {
                "baseColorFactor" : [
                    0,
                    0,
                    0,
                    1
                ],
                "metallicFactor" : 0,
                "roughnessFactor" : 0.4000000059604645
            }
        },
        {
            "doubleSided" : true,
            "name" : "SVGMat.004",
            "pbrMetallicRoughness" : {
                "baseColorFactor" : [
                    0,
                    0,
                    0,
                    1
                ],
                "metallicFactor" : 0,
                "roughnessFactor" : 0.4000000059604645
            }
        }
    ],
    "meshes" : [
        {
            "name" : "path14",
            "primitives" : [
                {
                    "attributes" : {
                        "POSITION" : 0,
                        "NORMAL" : 1,
                        "TEXCOORD_0" : 2
                    },
                    "indices" : 3,
                    "material" : 0
                }
            ]
        },
        {
            "name" : "path16",
            "primitives" : [
                {
                    "attributes" : {
                        "POSITION" : 4,
                        "NORMAL" : 5,
                        "TEXCOORD_0" : 6
                    },
                    "indices" : 7,
                    "material" : 1
                }
            ]
        },
        {
            "name" : "path18",
            "primitives" : [
                {
                    "attributes" : {
                        "POSITION" : 8,
                        "NORMAL" : 9,
                        "TEXCOORD_0" : 10
                    },
                    "indices" : 11,
                    "material" : 2
                }
            ]
        }
    ],
    "accessors" : [
        {
            "bufferView" : 0,
            "componentType" : 5126,
            "count" : 6195,
            "max" : [
                0.05924440920352936,
                0,
                -0.017847225069999695
            ],
            "min" : [
                0.001000925898551941,
                -0.024000000208616257,
                -0.07903456687927246
            ],
            "type" : "VEC3"
        },
        {
            "bufferView" : 1,
            "componentType" : 5126,
            "count" : 6195,
            "type" : "VEC3"
        },
        {
            "bufferView" : 2,
            "componentType" : 5126,
            "count" : 6195,
            "type" : "VEC2"
        },
        {
            "bufferView" : 3,
            "componentType" : 5123,
            "count" : 9570,
            "type" : "SCALAR"
        },
        {
            "bufferView" : 4,
            "componentType" : 5126,
            "count" : 13660,
            "max" : [
                0.13700512051582336,
                0,
                -0.02057737112045288
            ],
            "min" : [
                0.07142169773578644,
                -0.024000000208616257,
                -0.07742859423160553
            ],
            "type" : "VEC3"
        },
        {
            "bufferView" : 5,
            "componentType" : 5126,
            "count" : 13660,
            "type" : "VEC3"
        },
        {
            "bufferView" : 6,
            "componentType" : 5126,
            "count" : 13660,
            "type" : "VEC2"
        },
        {
            "bufferView" : 7,
            "componentType" : 5123,
            "count" : 21249,
            "type" : "SCALAR"
        },
        {
            "bufferView" : 8,
            "componentType" : 5126,
            "count" : 11688,
            "max" : [
                0.24901746213436127,
                0,
                -0.013591408729553223
            ],
            "min" : [
                0.19061969220638275,
                -0.024000000208616257,
                -0.08553874492645264
            ],
            "type" : "VEC3"
        },
        {
            "bufferView" : 9,
            "componentType" : 5126,
            "count" : 11688,
            "type" : "VEC3"
        },
        {
            "bufferView" : 10,
            "componentType" : 5126,
            "count" : 11688,
            "type" : "VEC2"
        },
        {
            "bufferView" : 11,
            "componentType" : 5123,
            "count" : 17853,
            "type" : "SCALAR"
        }
    ],
    "bufferViews" : [
        {
            "buffer" : 0,
            "byteLength" : 74340,
            "byteOffset" : 0
        },
        {
            "buffer" : 0,
            "byteLength" : 74340,
            "byteOffset" : 74340
        },
        {
            "buffer" : 0,
            "byteLength" : 49560,
            "byteOffset" : 148680
        },
        {
            "buffer" : 0,
            "byteLength" : 19140,
            "byteOffset" : 198240
        },
        {
            "buffer" : 0,
            "byteLength" : 163920,
            "byteOffset" : 217380
        },
        {
            "buffer" : 0,
            "byteLength" : 163920,
            "byteOffset" : 381300
        },
        {
            "buffer" : 0,
            "byteLength" : 109280,
            "byteOffset" : 545220
        },
        {
            "buffer" : 0,
            "byteLength" : 42498,
            "byteOffset" : 654500
        },
        {
            "buffer" : 0,
            "byteLength" : 140256,
            "byteOffset" : 697000
        },
        {
            "buffer" : 0,
            "byteLength" : 140256,
            "byteOffset" : 837256
        },
        {
            "buffer" : 0,
            "byteLength" : 93504,
            "byteOffset" : 977512
        },
        {
            "buffer" : 0,
            "byteLength" : 35706,
            "byteOffset" : 1071016
        }
    ],
    "buffers" : [
        {
            "byteLength" : 1106724,
            "uri" : "data:application/octet-stream;base64,"
        }
    ]
}
