{
    "asset" : {
        "generator" : "Khronos glTF Blender I/O v1.4.40",
        "version" : "2.0"
    },
    "scene" : 0,
    "scenes" : [
        {
            "name" : "Scene",
            "nodes" : [
                0,
                1,
                2
            ]
        }
    ],
    "nodes" : [
        {
            "name" : "Light",
            "rotation" : [
                0.16907575726509094,
                0.7558803558349609,
                -0.27217137813568115,
                0.570947527885437
            ],
            "translation" : [
                4.076245307922363,
                5.903861999511719,
                -1.0054539442062378
            ]
        },
        {
            "name" : "Camera",
            "rotation" : [
                0.483536034822464,
                0.33687159419059753,
                -0.20870360732078552,
                0.7804827094078064
            ],
            "translation" : [
                7.358891487121582,
                4.958309173583984,
                6.925790786743164
            ]
        },
        {
            "mesh" : 0,
            "name" : "path134",
            "rotation" : [
                0.7071068286895752,
                0,
                0,
                0.7071068286895752
            ],
            "scale" : [
                0.5,
                0.5,
                0.5
            ],
            "translation" : [
                -0.04999999701976776,
                -0.019999999552965164,
                0.0024999999441206455
            ]
        }
    ],
    "materials" : [
        {
            "doubleSided" : true,
            "name" : "SVGMat.001",
            "pbrMetallicRoughness" : {
                "baseColorFactor" : [
                    0.6239603757858276,
                    0.6239603757858276,
                    0.6239603757858276,
                    1
                ],
                "metallicFactor" : 0,
                "roughnessFactor" : 0.4000000059604645
            }
        },
        {
            "doubleSided" : true,
            "name" : "SVGMat.002",
            "pbrMetallicRoughness" : {
                "baseColorFactor" : [
                    0.43415364623069763,
                    0.43415364623069763,
                    0.43415364623069763,
                    1
                ],
                "metallicFactor" : 0,
                "roughnessFactor" : 0.4000000059604645
            }
        },
        {
            "doubleSided" : true,
            "name" : "SVGMat.003",
            "pbrMetallicRoughness" : {
                "baseColorFactor" : [
                    0.2746773064136505,
                    0.2746773064136505,
                    0.2746773064136505,
                    1
                ],
                "metallicFactor" : 0,
                "roughnessFactor" : 0.4000000059604645
            }
        },
        {
            "doubleSided" : true,
            "name" : "SVGMat.004",
            "pbrMetallicRoughness" : {
                "baseColorFactor" : [
                    0.16202937066555023,
                    0.16202937066555023,
                    0.16202937066555023,
                    1
                ],
                "metallicFactor" : 0,
                "roughnessFactor" : 0.4000000059604645
            }
        },
        {
            "doubleSided" : true,
            "name" : "SVGMat.005",
            "pbrMetallicRoughness" : {
                "baseColorFactor" : [
                    0.07818742096424103,
                    0.07818742096424103,
                    0.07818742096424103,
                    1
                ],
                "metallicFactor" : 0,
                "roughnessFactor" : 0.4000000059604645
            }
        },
        {
            "doubleSided" : true,
            "name" : "SVGMat.006",
            "pbrMetallicRoughness" : {
                "baseColorFactor" : [
                    0.028426039963960648,
                    0.028426039963960648,
                    0.028426039963960648,
                    1
                ],
                "metallicFactor" : 0,
                "roughnessFactor" : 0.4000000059604645
            }
        },
        {
            "doubleSided" : true,
            "name" : "SVGMat.007",
            "pbrMetallicRoughness" : {
                "baseColorFactor" : [
                    0,
                    0,
                    0,
                    1
                ],
                "metallicFactor" : 0,
                "roughnessFactor" : 0.4000000059604645
            }
        }
    ],
    "meshes" : [
        {
            "name" : "path134",
            "primitives" : [
                {
                    "attributes" : {
                        "POSITION" : 0,
                        "NORMAL" : 1,
                        "TEXCOORD_0" : 2
                    },
                    "indices" : 3,
                    "material" : 0
                },
                {
                    "attributes" : {
                        "POSITION" : 4,
                        "NORMAL" : 5,
                        "TEXCOORD_0" : 6
                    },
                    "indices" : 7,
                    "material" : 1
                },
                {
                    "attributes" : {
                        "POSITION" : 8,
                        "NORMAL" : 9,
                        "TEXCOORD_0" : 10
                    },
                    "indices" : 11,
                    "material" : 2
                },
                {
                    "attributes" : {
                        "POSITION" : 12,
                        "NORMAL" : 13,
                        "TEXCOORD_0" : 14
                    },
                    "indices" : 15,
                    "material" : 3
                },
                {
                    "attributes" : {
                        "POSITION" : 16,
                        "NORMAL" : 17,
                        "TEXCOORD_0" : 18
                    },
                    "indices" : 19,
                    "material" : 4
                },
                {
                    "attributes" : {
                        "POSITION" : 20,
                        "NORMAL" : 21,
                        "TEXCOORD_0" : 22
                    },
                    "indices" : 23,
                    "material" : 5
                },
                {
                    "attributes" : {
                        "POSITION" : 24,
                        "NORMAL" : 25,
                        "TEXCOORD_0" : 26
                    },
                    "indices" : 27,
                    "material" : 6
                }
            ]
        }
    ],
    "accessors" : [
        {
            "bufferView" : 0,
            "componentType" : 5126,
            "count" : 2878,
            "max" : [
                0.1971675157546997,
                0,
                -0.004413723945617676
            ],
            "min" : [
                0.002413615584373474,
                -0.009999999776482582,
                -0.0714506283402443
            ],
            "type" : "VEC3"
        },
        {
            "bufferView" : 1,
            "componentType" : 5126,
            "count" : 2878,
            "type" : "VEC3"
        },
        {
            "bufferView" : 2,
            "componentType" : 5126,
            "count" : 2878,
            "type" : "VEC2"
        },
        {
            "bufferView" : 3,
            "componentType" : 5123,
            "count" : 5742,
            "type" : "SCALAR"
        },
        {
            "bufferView" : 4,
            "componentType" : 5126,
            "count" : 2833,
            "max" : [
                0.19734860956668854,
                0,
                -0.004413723945617676
            ],
            "min" : [
                0.002413615584373474,
                -0.009999999776482582,
                -0.07131539285182953
            ],
            "type" : "VEC3"
        },
        {
            "bufferView" : 5,
            "componentType" : 5126,
            "count" : 2833,
            "type" : "VEC3"
        },
        {
            "bufferView" : 6,
            "componentType" : 5126,
            "count" : 2833,
            "type" : "VEC2"
        },
        {
            "bufferView" : 7,
            "componentType" : 5123,
            "count" : 5580,
            "type" : "SCALAR"
        },
        {
            "bufferView" : 8,
            "componentType" : 5126,
            "count" : 2862,
            "max" : [
                0.19699083268642426,
                0,
                -0.004413619637489319
            ],
            "min" : [
                0.002368970774114132,
                -0.009999999776482582,
                -0.07097968459129333
            ],
            "type" : "VEC3"
        },
        {
            "bufferView" : 9,
            "componentType" : 5126,
            "count" : 2862,
            "type" : "VEC3"
        },
        {
            "bufferView" : 10,
            "componentType" : 5126,
            "count" : 2862,
            "type" : "VEC2"
        },
        {
            "bufferView" : 11,
            "componentType" : 5123,
            "count" : 5664,
            "type" : "SCALAR"
        },
        {
            "bufferView" : 12,
            "componentType" : 5126,
            "count" : 2864,
            "max" : [
                0.19699083268642426,
                0,
                -0.0044136643409729
            ],
            "min" : [
                0.0023689717054367065,
                -0.009999999776482582,
                -0.07060696184635162
            ],
            "type" : "VEC3"
        },
        {
            "bufferView" : 13,
            "componentType" : 5126,
            "count" : 2864,
            "type" : "VEC3"
        },
        {
            "bufferView" : 14,
            "componentType" : 5126,
            "count" : 2864,
            "type" : "VEC2"
        },
        {
            "bufferView" : 15,
            "componentType" : 5123,
            "count" : 5634,
            "type" : "SCALAR"
        },
        {
            "bufferView" : 16,
            "componentType" : 5126,
            "count" : 2916,
            "max" : [
                0.19699083268642426,
                0,
                -0.004413783550262451
            ],
            "min" : [
                0.002413615584373474,
                -0.009999999776482582,
                -0.07052109390497208
            ],
            "type" : "VEC3"
        },
        {
            "bufferView" : 17,
            "componentType" : 5126,
            "count" : 2916,
            "type" : "VEC3"
        },
        {
            "bufferView" : 18,
            "componentType" : 5126,
            "count" : 2916,
            "type" : "VEC2"
        },
        {
            "bufferView" : 19,
            "componentType" : 5123,
            "count" : 5724,
            "type" : "SCALAR"
        },
        {
            "bufferView" : 20,
            "componentType" : 5126,
            "count" : 2902,
            "max" : [
                0.19691750407218933,
                0,
                -0.004413813352584839
            ],
            "min" : [
                0.0022679027169942856,
                -0.009999999776482582,
                -0.07062521576881409
            ],
            "type" : "VEC3"
        },
        {
            "bufferView" : 21,
            "componentType" : 5126,
            "count" : 2902,
            "type" : "VEC3"
        },
        {
            "bufferView" : 22,
            "componentType" : 5126,
            "count" : 2902,
            "type" : "VEC2"
        },
        {
            "bufferView" : 23,
            "componentType" : 5123,
            "count" : 5742,
            "type" : "SCALAR"
        },
        {
            "bufferView" : 24,
            "componentType" : 5126,
            "count" : 2942,
            "max" : [
                0.19691750407218933,
                0,
                -0.004413723945617676
            ],
            "min" : [
                0.0027808398008346558,
                -0.009999999776482582,
                -0.07014114409685135
            ],
            "type" : "VEC3"
        },
        {
            "bufferView" : 25,
            "componentType" : 5126,
            "count" : 2942,
            "type" : "VEC3"
        },
        {
            "bufferView" : 26,
            "componentType" : 5126,
            "count" : 2942,
            "type" : "VEC2"
        },
        {
            "bufferView" : 27,
            "componentType" : 5123,
            "count" : 5790,
            "type" : "SCALAR"
        }
    ],
    "bufferViews" : [
        {
            "buffer" : 0,
            "byteLength" : 34536,
            "byteOffset" : 0
        },
        {
            "buffer" : 0,
            "byteLength" : 34536,
            "byteOffset" : 34536
        },
        {
            "buffer" : 0,
            "byteLength" : 23024,
            "byteOffset" : 69072
        },
        {
            "buffer" : 0,
            "byteLength" : 11484,
            "byteOffset" : 92096
        },
        {
            "buffer" : 0,
            "byteLength" : 33996,
            "byteOffset" : 103580
        },
        {
            "buffer" : 0,
            "byteLength" : 33996,
            "byteOffset" : 137576
        },
        {
            "buffer" : 0,
            "byteLength" : 22664,
            "byteOffset" : 171572
        },
        {
            "buffer" : 0,
            "byteLength" : 11160,
            "byteOffset" : 194236
        },
        {
            "buffer" : 0,
            "byteLength" : 34344,
            "byteOffset" : 205396
        },
        {
            "buffer" : 0,
            "byteLength" : 34344,
            "byteOffset" : 239740
        },
        {
            "buffer" : 0,
            "byteLength" : 22896,
            "byteOffset" : 274084
        },
        {
            "buffer" : 0,
            "byteLength" : 11328,
            "byteOffset" : 296980
        },
        {
            "buffer" : 0,
            "byteLength" : 34368,
            "byteOffset" : 308308
        },
        {
            "buffer" : 0,
            "byteLength" : 34368,
            "byteOffset" : 342676
        },
        {
            "buffer" : 0,
            "byteLength" : 22912,
            "byteOffset" : 377044
        },
        {
            "buffer" : 0,
            "byteLength" : 11268,
            "byteOffset" : 399956
        },
        {
            "buffer" : 0,
            "byteLength" : 34992,
            "byteOffset" : 411224
        },
        {
            "buffer" : 0,
            "byteLength" : 34992,
            "byteOffset" : 446216
        },
        {
            "buffer" : 0,
            "byteLength" : 23328,
            "byteOffset" : 481208
        },
        {
            "buffer" : 0,
            "byteLength" : 11448,
            "byteOffset" : 504536
        },
        {
            "buffer" : 0,
            "byteLength" : 34824,
            "byteOffset" : 515984
        },
        {
            "buffer" : 0,
            "byteLength" : 34824,
            "byteOffset" : 550808
        },
        {
            "buffer" : 0,
            "byteLength" : 23216,
            "byteOffset" : 585632
        },
        {
            "buffer" : 0,
            "byteLength" : 11484,
            "byteOffset" : 608848
        },
        {
            "buffer" : 0,
            "byteLength" : 35304,
            "byteOffset" : 620332
        },
        {
            "buffer" : 0,
            "byteLength" : 35304,
            "byteOffset" : 655636
        },
        {
            "buffer" : 0,
            "byteLength" : 23536,
            "byteOffset" : 690940
        },
        {
            "buffer" : 0,
            "byteLength" : 11580,
            "byteOffset" : 714476
        }
    ],
    "buffers" : [
        {
            "byteLength" : 726056,
            "uri" : "data:application/octet-stream;base64,"
        }
    ]
}
