{
    "asset" : {
        "generator" : "Khronos glTF Blender I/O v1.4.40",
        "version" : "2.0"
    },
    "scene" : 0,
    "scenes" : [
        {
            "name" : "Scene",
            "nodes" : [
                0,
                1,
                2
            ]
        }
    ],
    "nodes" : [
        {
            "name" : "Light",
            "rotation" : [
                0.16907575726509094,
                0.7558803558349609,
                -0.27217137813568115,
                0.570947527885437
            ],
            "translation" : [
                4.076245307922363,
                5.903861999511719,
                -1.0054539442062378
            ]
        },
        {
            "name" : "Camera",
            "rotation" : [
                0.483536034822464,
                0.33687159419059753,
                -0.20870360732078552,
                0.7804827094078064
            ],
            "translation" : [
                7.358891487121582,
                4.958309173583984,
                6.925790786743164
            ]
        },
        {
            "mesh" : 0,
            "name" : "path38",
            "rotation" : [
                0.7071068286895752,
                0,
                0,
                0.7071068286895752
            ],
            "scale" : [
                0.5,
                0.5,
                0.5
            ],
            "translation" : [
                -0.04999999701976776,
                -0.019999999552965164,
                0.0024999999441206455
            ]
        }
    ],
    "materials" : [
        {
            "doubleSided" : true,
            "name" : "SVGMat.001",
            "pbrMetallicRoughness" : {
                "baseColorFactor" : [
                    0.05286061763763428,
                    0.14126336574554443,
                    0.7529424428939819,
                    1
                ],
                "metallicFactor" : 0,
                "roughnessFactor" : 0.4000000059604645
            }
        },
        {
            "doubleSided" : true,
            "name" : "SVGMat.002",
            "pbrMetallicRoughness" : {
                "baseColorFactor" : [
                    0.05286061763763428,
                    0.14126336574554443,
                    0.7529424428939819,
                    1
                ],
                "metallicFactor" : 0,
                "roughnessFactor" : 0.4000000059604645
            }
        },
        {
            "doubleSided" : true,
            "name" : "SVGMat.003",
            "pbrMetallicRoughness" : {
                "baseColorFactor" : [
                    0.05286061763763428,
                    0.14126336574554443,
                    0.7529424428939819,
                    1
                ],
                "metallicFactor" : 0,
                "roughnessFactor" : 0.4000000059604645
            }
        },
        {
            "doubleSided" : true,
            "name" : "SVGMat.004",
            "pbrMetallicRoughness" : {
                "baseColorFactor" : [
                    0.05286061763763428,
                    0.14126336574554443,
                    0.7529424428939819,
                    1
                ],
                "metallicFactor" : 0,
                "roughnessFactor" : 0.4000000059604645
            }
        },
        {
            "doubleSided" : true,
            "name" : "SVGMat.005",
            "pbrMetallicRoughness" : {
                "baseColorFactor" : [
                    0.05286061763763428,
                    0.14126336574554443,
                    0.7529424428939819,
                    1
                ],
                "metallicFactor" : 0,
                "roughnessFactor" : 0.4000000059604645
            }
        },
        {
            "doubleSided" : true,
            "name" : "SVGMat.006",
            "pbrMetallicRoughness" : {
                "baseColorFactor" : [
                    0.05286061763763428,
                    0.14126336574554443,
                    0.7529424428939819,
                    1
                ],
                "metallicFactor" : 0,
                "roughnessFactor" : 0.4000000059604645
            }
        },
        {
            "doubleSided" : true,
            "name" : "SVGMat.007",
            "pbrMetallicRoughness" : {
                "baseColorFactor" : [
                    0.05286061763763428,
                    0.14126336574554443,
                    0.7529424428939819,
                    1
                ],
                "metallicFactor" : 0,
                "roughnessFactor" : 0.4000000059604645
            }
        }
    ],
    "meshes" : [
        {
            "name" : "path38",
            "primitives" : [
                {
                    "attributes" : {
                        "POSITION" : 0,
                        "NORMAL" : 1,
                        "TEXCOORD_0" : 2
                    },
                    "indices" : 3,
                    "material" : 0
                },
                {
                    "attributes" : {
                        "POSITION" : 4,
                        "NORMAL" : 5,
                        "TEXCOORD_0" : 6
                    },
                    "indices" : 7,
                    "material" : 1
                },
                {
                    "attributes" : {
                        "POSITION" : 8,
                        "NORMAL" : 9,
                        "TEXCOORD_0" : 10
                    },
                    "indices" : 11,
                    "material" : 2
                },
                {
                    "attributes" : {
                        "POSITION" : 12,
                        "NORMAL" : 13,
                        "TEXCOORD_0" : 14
                    },
                    "indices" : 15,
                    "material" : 3
                },
                {
                    "attributes" : {
                        "POSITION" : 16,
                        "NORMAL" : 17,
                        "TEXCOORD_0" : 18
                    },
                    "indices" : 19,
                    "material" : 4
                },
                {
                    "attributes" : {
                        "POSITION" : 20,
                        "NORMAL" : 21,
                        "TEXCOORD_0" : 22
                    },
                    "indices" : 23,
                    "material" : 5
                },
                {
                    "attributes" : {
                        "POSITION" : 24,
                        "NORMAL" : 25,
                        "TEXCOORD_0" : 26
                    },
                    "indices" : 27,
                    "material" : 6
                }
            ]
        }
    ],
    "accessors" : [
        {
            "bufferView" : 0,
            "componentType" : 5126,
            "count" : 1340,
            "max" : [
                0.1998826265335083,
                0,
                -0.011939257383346558
            ],
            "min" : [
                -0.0002267886884510517,
                -0.009999999776482582,
                -0.06299849599599838
            ],
            "type" : "VEC3"
        },
        {
            "bufferView" : 1,
            "componentType" : 5126,
            "count" : 1340,
            "type" : "VEC3"
        },
        {
            "bufferView" : 2,
            "componentType" : 5126,
            "count" : 1340,
            "type" : "VEC2"
        },
        {
            "bufferView" : 3,
            "componentType" : 5123,
            "count" : 2694,
            "type" : "SCALAR"
        },
        {
            "bufferView" : 4,
            "componentType" : 5126,
            "count" : 1514,
            "max" : [
                0.19954612851142883,
                0,
                -0.0126112699508667
            ],
            "min" : [
                -0.0002221856266260147,
                -0.009999999776482582,
                -0.06313673406839371
            ],
            "type" : "VEC3"
        },
        {
            "bufferView" : 5,
            "componentType" : 5126,
            "count" : 1514,
            "type" : "VEC3"
        },
        {
            "bufferView" : 6,
            "componentType" : 5126,
            "count" : 1514,
            "type" : "VEC2"
        },
        {
            "bufferView" : 7,
            "componentType" : 5123,
            "count" : 3060,
            "type" : "SCALAR"
        },
        {
            "bufferView" : 8,
            "componentType" : 5126,
            "count" : 1476,
            "max" : [
                0.19954705238342285,
                0,
                -0.012572914361953735
            ],
            "min" : [
                -0.0002221856266260147,
                -0.009999999776482582,
                -0.06313600391149521
            ],
            "type" : "VEC3"
        },
        {
            "bufferView" : 9,
            "componentType" : 5126,
            "count" : 1476,
            "type" : "VEC3"
        },
        {
            "bufferView" : 10,
            "componentType" : 5126,
            "count" : 1476,
            "type" : "VEC2"
        },
        {
            "bufferView" : 11,
            "componentType" : 5123,
            "count" : 2928,
            "type" : "SCALAR"
        },
        {
            "bufferView" : 12,
            "componentType" : 5126,
            "count" : 1448,
            "max" : [
                0.19921010732650757,
                0,
                -0.012497574090957642
            ],
            "min" : [
                -0.00011458573862910271,
                -0.009999999776482582,
                -0.06232670694589615
            ],
            "type" : "VEC3"
        },
        {
            "bufferView" : 13,
            "componentType" : 5126,
            "count" : 1448,
            "type" : "VEC3"
        },
        {
            "bufferView" : 14,
            "componentType" : 5126,
            "count" : 1448,
            "type" : "VEC2"
        },
        {
            "bufferView" : 15,
            "componentType" : 5123,
            "count" : 2886,
            "type" : "SCALAR"
        },
        {
            "bufferView" : 16,
            "componentType" : 5126,
            "count" : 1431,
            "max" : [
                0.19957658648490906,
                0,
                -0.0126112699508667
            ],
            "min" : [
                6.848759949207306e-05,
                -0.009999999776482582,
                -0.062326736748218536
            ],
            "type" : "VEC3"
        },
        {
            "bufferView" : 17,
            "componentType" : 5126,
            "count" : 1431,
            "type" : "VEC3"
        },
        {
            "bufferView" : 18,
            "componentType" : 5126,
            "count" : 1431,
            "type" : "VEC2"
        },
        {
            "bufferView" : 19,
            "componentType" : 5123,
            "count" : 2814,
            "type" : "SCALAR"
        },
        {
            "bufferView" : 20,
            "componentType" : 5126,
            "count" : 1503,
            "max" : [
                0.19962380826473236,
                0,
                -0.01261131465435028
            ],
            "min" : [
                0.00012482795864343643,
                -0.009999999776482582,
                -0.06232666224241257
            ],
            "type" : "VEC3"
        },
        {
            "bufferView" : 21,
            "componentType" : 5126,
            "count" : 1503,
            "type" : "VEC3"
        },
        {
            "bufferView" : 22,
            "componentType" : 5126,
            "count" : 1503,
            "type" : "VEC2"
        },
        {
            "bufferView" : 23,
            "componentType" : 5123,
            "count" : 2934,
            "type" : "SCALAR"
        },
        {
            "bufferView" : 24,
            "componentType" : 5126,
            "count" : 1452,
            "max" : [
                0.19958585500717163,
                0,
                -0.012611255049705505
            ],
            "min" : [
                8.89170914888382e-05,
                -0.009999999776482582,
                -0.06232669949531555
            ],
            "type" : "VEC3"
        },
        {
            "bufferView" : 25,
            "componentType" : 5126,
            "count" : 1452,
            "type" : "VEC3"
        },
        {
            "bufferView" : 26,
            "componentType" : 5126,
            "count" : 1452,
            "type" : "VEC2"
        },
        {
            "bufferView" : 27,
            "componentType" : 5123,
            "count" : 2892,
            "type" : "SCALAR"
        }
    ],
    "bufferViews" : [
        {
            "buffer" : 0,
            "byteLength" : 16080,
            "byteOffset" : 0
        },
        {
            "buffer" : 0,
            "byteLength" : 16080,
            "byteOffset" : 16080
        },
        {
            "buffer" : 0,
            "byteLength" : 10720,
            "byteOffset" : 32160
        },
        {
            "buffer" : 0,
            "byteLength" : 5388,
            "byteOffset" : 42880
        },
        {
            "buffer" : 0,
            "byteLength" : 18168,
            "byteOffset" : 48268
        },
        {
            "buffer" : 0,
            "byteLength" : 18168,
            "byteOffset" : 66436
        },
        {
            "buffer" : 0,
            "byteLength" : 12112,
            "byteOffset" : 84604
        },
        {
            "buffer" : 0,
            "byteLength" : 6120,
            "byteOffset" : 96716
        },
        {
            "buffer" : 0,
            "byteLength" : 17712,
            "byteOffset" : 102836
        },
        {
            "buffer" : 0,
            "byteLength" : 17712,
            "byteOffset" : 120548
        },
        {
            "buffer" : 0,
            "byteLength" : 11808,
            "byteOffset" : 138260
        },
        {
            "buffer" : 0,
            "byteLength" : 5856,
            "byteOffset" : 150068
        },
        {
            "buffer" : 0,
            "byteLength" : 17376,
            "byteOffset" : 155924
        },
        {
            "buffer" : 0,
            "byteLength" : 17376,
            "byteOffset" : 173300
        },
        {
            "buffer" : 0,
            "byteLength" : 11584,
            "byteOffset" : 190676
        },
        {
            "buffer" : 0,
            "byteLength" : 5772,
            "byteOffset" : 202260
        },
        {
            "buffer" : 0,
            "byteLength" : 17172,
            "byteOffset" : 208032
        },
        {
            "buffer" : 0,
            "byteLength" : 17172,
            "byteOffset" : 225204
        },
        {
            "buffer" : 0,
            "byteLength" : 11448,
            "byteOffset" : 242376
        },
        {
            "buffer" : 0,
            "byteLength" : 5628,
            "byteOffset" : 253824
        },
        {
            "buffer" : 0,
            "byteLength" : 18036,
            "byteOffset" : 259452
        },
        {
            "buffer" : 0,
            "byteLength" : 18036,
            "byteOffset" : 277488
        },
        {
            "buffer" : 0,
            "byteLength" : 12024,
            "byteOffset" : 295524
        },
        {
            "buffer" : 0,
            "byteLength" : 5868,
            "byteOffset" : 307548
        },
        {
            "buffer" : 0,
            "byteLength" : 17424,
            "byteOffset" : 313416
        },
        {
            "buffer" : 0,
            "byteLength" : 17424,
            "byteOffset" : 330840
        },
        {
            "buffer" : 0,
            "byteLength" : 11616,
            "byteOffset" : 348264
        },
        {
            "buffer" : 0,
            "byteLength" : 5784,
            "byteOffset" : 359880
        }
    ],
    "buffers" : [
        {
            "byteLength" : 365664,
            "uri" : "data:application/octet-stream;base64,"
        }
    ]
}
