{
    "asset" : {
        "generator" : "Khronos glTF Blender I/O v1.4.40",
        "version" : "2.0"
    },
    "scene" : 0,
    "scenes" : [
        {
            "name" : "Scene",
            "nodes" : [
                0,
                1,
                2,
                3,
                4,
                5
            ]
        }
    ],
    "nodes" : [
        {
            "name" : "Light",
            "rotation" : [
                0.16907575726509094,
                0.7558803558349609,
                -0.27217137813568115,
                0.570947527885437
            ],
            "translation" : [
                4.076245307922363,
                5.903861999511719,
                -1.0054539442062378
            ]
        },
        {
            "name" : "Camera",
            "rotation" : [
                0.483536034822464,
                0.33687159419059753,
                -0.20870360732078552,
                0.7804827094078064
            ],
            "translation" : [
                7.358891487121582,
                4.958309173583984,
                6.925790786743164
            ]
        },
        {
            "mesh" : 0,
            "name" : "path14",
            "rotation" : [
                0.7071068286895752,
                0,
                0,
                0.7071068286895752
            ],
            "scale" : [
                0.5,
                0.5,
                0.5
            ],
            "translation" : [
                -0.0625,
                -0.02500000037252903,
                0.006500000134110451
            ]
        },
        {
            "mesh" : 1,
            "name" : "path16",
            "rotation" : [
                0.7071068286895752,
                0,
                0,
                0.7071068286895752
            ],
            "scale" : [
                0.5,
                0.5,
                0.5
            ],
            "translation" : [
                -0.0625,
                -0.02500000037252903,
                0.006500000134110451
            ]
        },
        {
            "mesh" : 2,
            "name" : "path18",
            "rotation" : [
                0.7071068286895752,
                0,
                0,
                0.7071068286895752
            ],
            "scale" : [
                0.5,
                0.5,
                0.5
            ],
            "translation" : [
                -0.0625,
                -0.02500000037252903,
                0.006500000134110451
            ]
        },
        {
            "mesh" : 3,
            "name" : "path20",
            "rotation" : [
                0.7071068286895752,
                0,
                0,
                0.7071068286895752
            ],
            "scale" : [
                0.5,
                0.5,
                0.5
            ],
            "translation" : [
                -0.0625,
                -0.02500000037252903,
                0.006500000134110451
            ]
        }
    ],
    "materials" : [
        {
            "doubleSided" : true,
            "name" : "SVGMat.002",
            "pbrMetallicRoughness" : {
                "baseColorFactor" : [
                    0,
                    0,
                    1,
                    1
                ],
                "metallicFactor" : 0,
                "roughnessFactor" : 0.4000000059604645
            }
        },
        {
            "doubleSided" : true,
            "name" : "SVGMat.003",
            "pbrMetallicRoughness" : {
                "baseColorFactor" : [
                    0,
                    0,
                    1,
                    1
                ],
                "metallicFactor" : 0,
                "roughnessFactor" : 0.4000000059604645
            }
        },
        {
            "doubleSided" : true,
            "name" : "SVGMat.004",
            "pbrMetallicRoughness" : {
                "baseColorFactor" : [
                    0,
                    0,
                    1,
                    1
                ],
                "metallicFactor" : 0,
                "roughnessFactor" : 0.4000000059604645
            }
        },
        {
            "doubleSided" : true,
            "name" : "SVGMat.005",
            "pbrMetallicRoughness" : {
                "baseColorFactor" : [
                    0,
                    0,
                    1,
                    1
                ],
                "metallicFactor" : 0,
                "roughnessFactor" : 0.4000000059604645
            }
        }
    ],
    "meshes" : [
        {
            "name" : "path14",
            "primitives" : [
                {
                    "attributes" : {
                        "POSITION" : 0,
                        "NORMAL" : 1,
                        "TEXCOORD_0" : 2
                    },
                    "indices" : 3,
                    "material" : 0
                }
            ]
        },
        {
            "name" : "path16",
            "primitives" : [
                {
                    "attributes" : {
                        "POSITION" : 4,
                        "NORMAL" : 5,
                        "TEXCOORD_0" : 6
                    },
                    "indices" : 7,
                    "material" : 1
                }
            ]
        },
        {
            "name" : "path18",
            "primitives" : [
                {
                    "attributes" : {
                        "POSITION" : 8,
                        "NORMAL" : 9,
                        "TEXCOORD_0" : 10
                    },
                    "indices" : 11,
                    "material" : 2
                }
            ]
        },
        {
            "name" : "path20",
            "primitives" : [
                {
                    "attributes" : {
                        "POSITION" : 12,
                        "NORMAL" : 13,
                        "TEXCOORD_0" : 14
                    },
                    "indices" : 15,
                    "material" : 3
                }
            ]
        }
    ],
    "accessors" : [
        {
            "bufferView" : 0,
            "componentType" : 5126,
            "count" : 1917,
            "max" : [
                0.047130268067121506,
                0,
                -0.03592652827501297
            ],
            "min" : [
                0.0013405251083895564,
                -0.024000000208616257,
                -0.06676074862480164
            ],
            "type" : "VEC3"
        },
        {
            "bufferView" : 1,
            "componentType" : 5126,
            "count" : 1917,
            "type" : "VEC3"
        },
        {
            "bufferView" : 2,
            "componentType" : 5126,
            "count" : 1917,
            "type" : "VEC2"
        },
        {
            "bufferView" : 3,
            "componentType" : 5123,
            "count" : 3732,
            "type" : "SCALAR"
        },
        {
            "bufferView" : 4,
            "componentType" : 5126,
            "count" : 2153,
            "max" : [
                0.11325589567422867,
                0,
                -0.026097282767295837
            ],
            "min" : [
                0.06921694427728653,
                -0.024000000208616257,
                -0.07551281899213791
            ],
            "type" : "VEC3"
        },
        {
            "bufferView" : 5,
            "componentType" : 5126,
            "count" : 2153,
            "type" : "VEC3"
        },
        {
            "bufferView" : 6,
            "componentType" : 5126,
            "count" : 2153,
            "type" : "VEC2"
        },
        {
            "bufferView" : 7,
            "componentType" : 5123,
            "count" : 4494,
            "type" : "SCALAR"
        },
        {
            "bufferView" : 8,
            "componentType" : 5126,
            "count" : 2668,
            "max" : [
                0.17547592520713806,
                0,
                -0.0235389843583107
            ],
            "min" : [
                0.140527606010437,
                -0.024000000208616257,
                -0.07685928791761398
            ],
            "type" : "VEC3"
        },
        {
            "bufferView" : 9,
            "componentType" : 5126,
            "count" : 2668,
            "type" : "VEC3"
        },
        {
            "bufferView" : 10,
            "componentType" : 5126,
            "count" : 2668,
            "type" : "VEC2"
        },
        {
            "bufferView" : 11,
            "componentType" : 5123,
            "count" : 5496,
            "type" : "SCALAR"
        },
        {
            "bufferView" : 12,
            "componentType" : 5126,
            "count" : 872,
            "max" : [
                0.24934543669223785,
                0,
                -0.02757839858531952
            ],
            "min" : [
                0.20434629917144775,
                -0.024000000208616257,
                -0.07598408311605453
            ],
            "type" : "VEC3"
        },
        {
            "bufferView" : 13,
            "componentType" : 5126,
            "count" : 872,
            "type" : "VEC3"
        },
        {
            "bufferView" : 14,
            "componentType" : 5126,
            "count" : 872,
            "type" : "VEC2"
        },
        {
            "bufferView" : 15,
            "componentType" : 5123,
            "count" : 1806,
            "type" : "SCALAR"
        }
    ],
    "bufferViews" : [
        {
            "buffer" : 0,
            "byteLength" : 23004,
            "byteOffset" : 0
        },
        {
            "buffer" : 0,
            "byteLength" : 23004,
            "byteOffset" : 23004
        },
        {
            "buffer" : 0,
            "byteLength" : 15336,
            "byteOffset" : 46008
        },
        {
            "buffer" : 0,
            "byteLength" : 7464,
            "byteOffset" : 61344
        },
        {
            "buffer" : 0,
            "byteLength" : 25836,
            "byteOffset" : 68808
        },
        {
            "buffer" : 0,
            "byteLength" : 25836,
            "byteOffset" : 94644
        },
        {
            "buffer" : 0,
            "byteLength" : 17224,
            "byteOffset" : 120480
        },
        {
            "buffer" : 0,
            "byteLength" : 8988,
            "byteOffset" : 137704
        },
        {
            "buffer" : 0,
            "byteLength" : 32016,
            "byteOffset" : 146692
        },
        {
            "buffer" : 0,
            "byteLength" : 32016,
            "byteOffset" : 178708
        },
        {
            "buffer" : 0,
            "byteLength" : 21344,
            "byteOffset" : 210724
        },
        {
            "buffer" : 0,
            "byteLength" : 10992,
            "byteOffset" : 232068
        },
        {
            "buffer" : 0,
            "byteLength" : 10464,
            "byteOffset" : 243060
        },
        {
            "buffer" : 0,
            "byteLength" : 10464,
            "byteOffset" : 253524
        },
        {
            "buffer" : 0,
            "byteLength" : 6976,
            "byteOffset" : 263988
        },
        {
            "buffer" : 0,
            "byteLength" : 3612,
            "byteOffset" : 270964
        }
    ],
    "buffers" : [
        {
            "byteLength" : 274576,
            "uri" : "data:application/octet-stream;base64,"
        }
    ]
}
