{
    "asset" : {
        "generator" : "Khronos glTF Blender I/O v1.4.40",
        "version" : "2.0"
    },
    "scene" : 0,
    "scenes" : [
        {
            "name" : "Scene",
            "nodes" : [
                0,
                1,
                2,
                3,
                4
            ]
        }
    ],
    "nodes" : [
        {
            "name" : "Light.001",
            "rotation" : [
                0.16907575726509094,
                0.7558803558349609,
                -0.27217137813568115,
                0.570947527885437
            ],
            "translation" : [
                4.076245307922363,
                5.903861999511719,
                -1.0054539442062378
            ]
        },
        {
            "name" : "Camera.001",
            "rotation" : [
                0.483536034822464,
                0.33687159419059753,
                -0.20870360732078552,
                0.7804827094078064
            ],
            "translation" : [
                7.358891487121582,
                4.958309173583984,
                6.925790786743164
            ]
        },
        {
            "mesh" : 0,
            "name" : "path905",
            "rotation" : [
                0.7071068286895752,
                0,
                0,
                0.7071068286895752
            ],
            "scale" : [
                0.5,
                0.5,
                0.5
            ],
            "translation" : [
                -0.054999999701976776,
                -0.019999999552965164,
                0.007500002160668373
            ]
        },
        {
            "name" : "Light",
            "rotation" : [
                0.16907575726509094,
                0.7558803558349609,
                -0.27217137813568115,
                0.570947527885437
            ],
            "translation" : [
                4.076245307922363,
                5.903861999511719,
                -1.0054539442062378
            ]
        },
        {
            "name" : "Camera",
            "rotation" : [
                0.483536034822464,
                0.33687159419059753,
                -0.20870360732078552,
                0.7804827094078064
            ],
            "translation" : [
                7.358891487121582,
                4.958309173583984,
                6.925790786743164
            ]
        }
    ],
    "materials" : [
        {
            "doubleSided" : true,
            "name" : "SVGMat.005",
            "pbrMetallicRoughness" : {
                "baseColorFactor" : [
                    0,
                    0.6583748459815979,
                    0,
                    1
                ],
                "metallicFactor" : 0,
                "roughnessFactor" : 0.4000000059604645
            }
        },
        {
            "doubleSided" : true,
            "name" : "SVGMat.002",
            "pbrMetallicRoughness" : {
                "baseColorFactor" : [
                    0,
                    0.6583748459815979,
                    0,
                    1
                ],
                "metallicFactor" : 0,
                "roughnessFactor" : 0.4000000059604645
            }
        },
        {
            "doubleSided" : true,
            "name" : "SVGMat.003",
            "pbrMetallicRoughness" : {
                "baseColorFactor" : [
                    0,
                    0.6583748459815979,
                    0,
                    1
                ],
                "metallicFactor" : 0,
                "roughnessFactor" : 0.4000000059604645
            }
        },
        {
            "doubleSided" : true,
            "name" : "SVGMat.004",
            "pbrMetallicRoughness" : {
                "baseColorFactor" : [
                    0,
                    0.6583748459815979,
                    0,
                    1
                ],
                "metallicFactor" : 0,
                "roughnessFactor" : 0.4000000059604645
            }
        },
        {
            "doubleSided" : true,
            "name" : "SVGMat.006",
            "pbrMetallicRoughness" : {
                "baseColorFactor" : [
                    0,
                    0.6583748459815979,
                    0,
                    1
                ],
                "metallicFactor" : 0,
                "roughnessFactor" : 0.4000000059604645
            }
        }
    ],
    "meshes" : [
        {
            "name" : "path905",
            "primitives" : [
                {
                    "attributes" : {
                        "POSITION" : 0,
                        "NORMAL" : 1,
                        "TEXCOORD_0" : 2
                    },
                    "indices" : 3,
                    "material" : 0
                },
                {
                    "attributes" : {
                        "POSITION" : 4,
                        "NORMAL" : 5,
                        "TEXCOORD_0" : 6
                    },
                    "indices" : 7,
                    "material" : 1
                },
                {
                    "attributes" : {
                        "POSITION" : 8,
                        "NORMAL" : 9,
                        "TEXCOORD_0" : 10
                    },
                    "indices" : 11,
                    "material" : 2
                },
                {
                    "attributes" : {
                        "POSITION" : 12,
                        "NORMAL" : 13,
                        "TEXCOORD_0" : 14
                    },
                    "indices" : 15,
                    "material" : 3
                },
                {
                    "attributes" : {
                        "POSITION" : 16,
                        "NORMAL" : 17,
                        "TEXCOORD_0" : 18
                    },
                    "indices" : 19,
                    "material" : 4
                }
            ]
        }
    ],
    "accessors" : [
        {
            "bufferView" : 0,
            "componentType" : 5126,
            "count" : 1109,
            "max" : [
                0.17498642206192017,
                0,
                -0.0007145404815673828
            ],
            "min" : [
                0.13648879528045654,
                -0.029999999329447746,
                -0.0781981348991394
            ],
            "type" : "VEC3"
        },
        {
            "bufferView" : 1,
            "componentType" : 5126,
            "count" : 1109,
            "type" : "VEC3"
        },
        {
            "bufferView" : 2,
            "componentType" : 5126,
            "count" : 1109,
            "type" : "VEC2"
        },
        {
            "bufferView" : 3,
            "componentType" : 5123,
            "count" : 1512,
            "type" : "SCALAR"
        },
        {
            "bufferView" : 4,
            "componentType" : 5126,
            "count" : 1502,
            "max" : [
                0.03696897625923157,
                0,
                0
            ],
            "min" : [
                -2.9802322387695312e-08,
                -0.029999999329447746,
                -0.07998472452163696
            ],
            "type" : "VEC3"
        },
        {
            "bufferView" : 5,
            "componentType" : 5126,
            "count" : 1502,
            "type" : "VEC3"
        },
        {
            "bufferView" : 6,
            "componentType" : 5126,
            "count" : 1502,
            "type" : "VEC2"
        },
        {
            "bufferView" : 7,
            "componentType" : 5123,
            "count" : 2100,
            "type" : "SCALAR"
        },
        {
            "bufferView" : 8,
            "componentType" : 5126,
            "count" : 654,
            "max" : [
                0.08332836627960205,
                0,
                -0.0007145404815673828
            ],
            "min" : [
                0.04130539298057556,
                -0.029999999329447746,
                -0.07819763571023941
            ],
            "type" : "VEC3"
        },
        {
            "bufferView" : 9,
            "componentType" : 5126,
            "count" : 654,
            "type" : "VEC3"
        },
        {
            "bufferView" : 10,
            "componentType" : 5126,
            "count" : 654,
            "type" : "VEC2"
        },
        {
            "bufferView" : 11,
            "componentType" : 5123,
            "count" : 966,
            "type" : "SCALAR"
        },
        {
            "bufferView" : 12,
            "componentType" : 5126,
            "count" : 622,
            "max" : [
                0.1294693946838379,
                0,
                -0.0007145404815673828
            ],
            "min" : [
                0.08563697338104248,
                -0.029999999329447746,
                -0.0797804594039917
            ],
            "type" : "VEC3"
        },
        {
            "bufferView" : 13,
            "componentType" : 5126,
            "count" : 622,
            "type" : "VEC3"
        },
        {
            "bufferView" : 14,
            "componentType" : 5126,
            "count" : 622,
            "type" : "VEC2"
        },
        {
            "bufferView" : 15,
            "componentType" : 5123,
            "count" : 882,
            "type" : "SCALAR"
        },
        {
            "bufferView" : 16,
            "componentType" : 5126,
            "count" : 705,
            "max" : [
                0.2200043797492981,
                0,
                -0.0007145404815673828
            ],
            "min" : [
                0.17798137664794922,
                -0.029999999329447746,
                -0.07819763571023941
            ],
            "type" : "VEC3"
        },
        {
            "bufferView" : 17,
            "componentType" : 5126,
            "count" : 705,
            "type" : "VEC3"
        },
        {
            "bufferView" : 18,
            "componentType" : 5126,
            "count" : 705,
            "type" : "VEC2"
        },
        {
            "bufferView" : 19,
            "componentType" : 5123,
            "count" : 984,
            "type" : "SCALAR"
        }
    ],
    "bufferViews" : [
        {
            "buffer" : 0,
            "byteLength" : 13308,
            "byteOffset" : 0
        },
        {
            "buffer" : 0,
            "byteLength" : 13308,
            "byteOffset" : 13308
        },
        {
            "buffer" : 0,
            "byteLength" : 8872,
            "byteOffset" : 26616
        },
        {
            "buffer" : 0,
            "byteLength" : 3024,
            "byteOffset" : 35488
        },
        {
            "buffer" : 0,
            "byteLength" : 18024,
            "byteOffset" : 38512
        },
        {
            "buffer" : 0,
            "byteLength" : 18024,
            "byteOffset" : 56536
        },
        {
            "buffer" : 0,
            "byteLength" : 12016,
            "byteOffset" : 74560
        },
        {
            "buffer" : 0,
            "byteLength" : 4200,
            "byteOffset" : 86576
        },
        {
            "buffer" : 0,
            "byteLength" : 7848,
            "byteOffset" : 90776
        },
        {
            "buffer" : 0,
            "byteLength" : 7848,
            "byteOffset" : 98624
        },
        {
            "buffer" : 0,
            "byteLength" : 5232,
            "byteOffset" : 106472
        },
        {
            "buffer" : 0,
            "byteLength" : 1932,
            "byteOffset" : 111704
        },
        {
            "buffer" : 0,
            "byteLength" : 7464,
            "byteOffset" : 113636
        },
        {
            "buffer" : 0,
            "byteLength" : 7464,
            "byteOffset" : 121100
        },
        {
            "buffer" : 0,
            "byteLength" : 4976,
            "byteOffset" : 128564
        },
        {
            "buffer" : 0,
            "byteLength" : 1764,
            "byteOffset" : 133540
        },
        {
            "buffer" : 0,
            "byteLength" : 8460,
            "byteOffset" : 135304
        },
        {
            "buffer" : 0,
            "byteLength" : 8460,
            "byteOffset" : 143764
        },
        {
            "buffer" : 0,
            "byteLength" : 5640,
            "byteOffset" : 152224
        },
        {
            "buffer" : 0,
            "byteLength" : 1968,
            "byteOffset" : 157864
        }
    ],
    "buffers" : [
        {
            "byteLength" : 159832,
            "uri" : "data:application/octet-stream;base64,"
        }
    ]
}
