{
    "asset" : {
        "generator" : "Khronos glTF Blender I/O v1.4.40",
        "version" : "2.0"
    },
    "scene" : 0,
    "scenes" : [
        {
            "name" : "Scene",
            "nodes" : [
                0,
                1,
                2
            ]
        }
    ],
    "nodes" : [
        {
            "name" : "Light",
            "rotation" : [
                0.16907575726509094,
                0.7558803558349609,
                -0.27217137813568115,
                0.570947527885437
            ],
            "translation" : [
                4.076245307922363,
                5.903861999511719,
                -1.0054539442062378
            ]
        },
        {
            "name" : "Camera",
            "rotation" : [
                0.483536034822464,
                0.33687159419059753,
                -0.20870360732078552,
                0.7804827094078064
            ],
            "translation" : [
                7.358891487121582,
                4.958309173583984,
                6.925790786743164
            ]
        },
        {
            "mesh" : 0,
            "name" : "path928",
            "rotation" : [
                0.7071068286895752,
                0,
                0,
                0.7071068286895752
            ],
            "scale" : [
                0.5,
                0.5,
                0.5
            ],
            "translation" : [
                -0.054999999701976776,
                -0.019999999552965164,
                0.007499999832361937
            ]
        }
    ],
    "materials" : [
        {
            "doubleSided" : true,
            "name" : "SVGMat.002",
            "pbrMetallicRoughness" : {
                "baseColorFactor" : [
                    0.6583748459815979,
                    0,
                    0,
                    1
                ],
                "metallicFactor" : 0,
                "roughnessFactor" : 0.4000000059604645
            }
        },
        {
            "doubleSided" : true,
            "name" : "SVGMat.003",
            "pbrMetallicRoughness" : {
                "baseColorFactor" : [
                    0.6583748459815979,
                    0,
                    0,
                    1
                ],
                "metallicFactor" : 0,
                "roughnessFactor" : 0.4000000059604645
            }
        },
        {
            "doubleSided" : true,
            "name" : "SVGMat.004",
            "pbrMetallicRoughness" : {
                "baseColorFactor" : [
                    0.6583748459815979,
                    0,
                    0,
                    1
                ],
                "metallicFactor" : 0,
                "roughnessFactor" : 0.4000000059604645
            }
        },
        {
            "doubleSided" : true,
            "name" : "SVGMat.005",
            "pbrMetallicRoughness" : {
                "baseColorFactor" : [
                    0.6583748459815979,
                    0,
                    0,
                    1
                ],
                "metallicFactor" : 0,
                "roughnessFactor" : 0.4000000059604645
            }
        }
    ],
    "meshes" : [
        {
            "name" : "path928",
            "primitives" : [
                {
                    "attributes" : {
                        "POSITION" : 0,
                        "NORMAL" : 1,
                        "TEXCOORD_0" : 2
                    },
                    "indices" : 3,
                    "material" : 0
                },
                {
                    "attributes" : {
                        "POSITION" : 4,
                        "NORMAL" : 5,
                        "TEXCOORD_0" : 6
                    },
                    "indices" : 7,
                    "material" : 1
                },
                {
                    "attributes" : {
                        "POSITION" : 8,
                        "NORMAL" : 9,
                        "TEXCOORD_0" : 10
                    },
                    "indices" : 11,
                    "material" : 2
                },
                {
                    "attributes" : {
                        "POSITION" : 12,
                        "NORMAL" : 13,
                        "TEXCOORD_0" : 14
                    },
                    "indices" : 15,
                    "material" : 3
                }
            ]
        }
    ],
    "accessors" : [
        {
            "bufferView" : 0,
            "componentType" : 5126,
            "count" : 1084,
            "max" : [
                0.04568968340754509,
                0,
                1.4901161193847656e-08
            ],
            "min" : [
                0,
                -0.029999999329447746,
                -0.07998472452163696
            ],
            "type" : "VEC3"
        },
        {
            "bufferView" : 1,
            "componentType" : 5126,
            "count" : 1084,
            "type" : "VEC3"
        },
        {
            "bufferView" : 2,
            "componentType" : 5126,
            "count" : 1084,
            "type" : "VEC2"
        },
        {
            "bufferView" : 3,
            "componentType" : 5123,
            "count" : 2268,
            "type" : "SCALAR"
        },
        {
            "bufferView" : 4,
            "componentType" : 5126,
            "count" : 496,
            "max" : [
                0.10298493504524231,
                0,
                -0.0007146000862121582
            ],
            "min" : [
                0.051049068570137024,
                -0.029999999329447746,
                -0.07818464934825897
            ],
            "type" : "VEC3"
        },
        {
            "bufferView" : 5,
            "componentType" : 5126,
            "count" : 496,
            "type" : "VEC3"
        },
        {
            "bufferView" : 6,
            "componentType" : 5126,
            "count" : 496,
            "type" : "VEC2"
        },
        {
            "bufferView" : 7,
            "componentType" : 5123,
            "count" : 1008,
            "type" : "SCALAR"
        },
        {
            "bufferView" : 8,
            "componentType" : 5126,
            "count" : 652,
            "max" : [
                0.16348040103912354,
                0,
                1.4901161193847656e-08
            ],
            "min" : [
                0.10834432393312454,
                -0.029999999329447746,
                -0.07998472452163696
            ],
            "type" : "VEC3"
        },
        {
            "bufferView" : 9,
            "componentType" : 5126,
            "count" : 652,
            "type" : "VEC3"
        },
        {
            "bufferView" : 10,
            "componentType" : 5126,
            "count" : 652,
            "type" : "VEC2"
        },
        {
            "bufferView" : 11,
            "componentType" : 5123,
            "count" : 1314,
            "type" : "SCALAR"
        },
        {
            "bufferView" : 12,
            "componentType" : 5126,
            "count" : 741,
            "max" : [
                0.22000451385974884,
                0,
                -0.0007146000862121582
            ],
            "min" : [
                0.17466184496879578,
                -0.029999999329447746,
                -0.07819820940494537
            ],
            "type" : "VEC3"
        },
        {
            "bufferView" : 13,
            "componentType" : 5126,
            "count" : 741,
            "type" : "VEC3"
        },
        {
            "bufferView" : 14,
            "componentType" : 5126,
            "count" : 741,
            "type" : "VEC2"
        },
        {
            "bufferView" : 15,
            "componentType" : 5123,
            "count" : 1572,
            "type" : "SCALAR"
        }
    ],
    "bufferViews" : [
        {
            "buffer" : 0,
            "byteLength" : 13008,
            "byteOffset" : 0
        },
        {
            "buffer" : 0,
            "byteLength" : 13008,
            "byteOffset" : 13008
        },
        {
            "buffer" : 0,
            "byteLength" : 8672,
            "byteOffset" : 26016
        },
        {
            "buffer" : 0,
            "byteLength" : 4536,
            "byteOffset" : 34688
        },
        {
            "buffer" : 0,
            "byteLength" : 5952,
            "byteOffset" : 39224
        },
        {
            "buffer" : 0,
            "byteLength" : 5952,
            "byteOffset" : 45176
        },
        {
            "buffer" : 0,
            "byteLength" : 3968,
            "byteOffset" : 51128
        },
        {
            "buffer" : 0,
            "byteLength" : 2016,
            "byteOffset" : 55096
        },
        {
            "buffer" : 0,
            "byteLength" : 7824,
            "byteOffset" : 57112
        },
        {
            "buffer" : 0,
            "byteLength" : 7824,
            "byteOffset" : 64936
        },
        {
            "buffer" : 0,
            "byteLength" : 5216,
            "byteOffset" : 72760
        },
        {
            "buffer" : 0,
            "byteLength" : 2628,
            "byteOffset" : 77976
        },
        {
            "buffer" : 0,
            "byteLength" : 8892,
            "byteOffset" : 80604
        },
        {
            "buffer" : 0,
            "byteLength" : 8892,
            "byteOffset" : 89496
        },
        {
            "buffer" : 0,
            "byteLength" : 5928,
            "byteOffset" : 98388
        },
        {
            "buffer" : 0,
            "byteLength" : 3144,
            "byteOffset" : 104316
        }
    ],
    "buffers" : [
        {
            "byteLength" : 107460,
            "uri" : "data:application/octet-stream;base64,"
        }
    ]
}
