{
    "asset" : {
        "generator" : "Khronos glTF Blender I/O v1.4.40",
        "version" : "2.0"
    },
    "scene" : 0,
    "scenes" : [
        {
            "name" : "Scene",
            "nodes" : [
                0
            ]
        }
    ],
    "nodes" : [
        {
            "mesh" : 0,
            "name" : "path1538",
            "rotation" : [
                0.7071068286895752,
                0,
                0,
                0.7071068286895752
            ],
            "scale" : [
                0.5,
                0.5,
                0.5
            ],
            "translation" : [
                -0.0625,
                -0.03750000149011612,
                0
            ]
        }
    ],
    "materials" : [
        {
            "doubleSided" : true,
            "emissiveFactor" : [
                1,
                1,
                1
            ],
            "name" : "\u30de\u30c6\u30ea\u30a2\u30eb",
            "pbrMetallicRoughness" : {
                "metallicFactor" : 0,
                "roughnessFactor" : 0.5
            }
        }
    ],
    "meshes" : [
        {
            "name" : "path1538.001",
            "primitives" : [
                {
                    "attributes" : {
                        "POSITION" : 0,
                        "NORMAL" : 1,
                        "TEXCOORD_0" : 2
                    },
                    "indices" : 3,
                    "material" : 0
                }
            ]
        }
    ],
    "accessors" : [
        {
            "bufferView" : 0,
            "componentType" : 5126,
            "count" : 6966,
            "max" : [
                0.25000494718551636,
                0,
                -0.050014935433864594
            ],
            "min" : [
                0,
                0,
                -0.09998087584972382
            ],
            "type" : "VEC3"
        },
        {
            "bufferView" : 1,
            "componentType" : 5126,
            "count" : 6966,
            "type" : "VEC3"
        },
        {
            "bufferView" : 2,
            "componentType" : 5126,
            "count" : 6966,
            "type" : "VEC2"
        },
        {
            "bufferView" : 3,
            "componentType" : 5123,
            "count" : 15783,
            "type" : "SCALAR"
        }
    ],
    "bufferViews" : [
        {
            "buffer" : 0,
            "byteLength" : 83592,
            "byteOffset" : 0
        },
        {
            "buffer" : 0,
            "byteLength" : 83592,
            "byteOffset" : 83592
        },
        {
            "buffer" : 0,
            "byteLength" : 55728,
            "byteOffset" : 167184
        },
        {
            "buffer" : 0,
            "byteLength" : 31566,
            "byteOffset" : 222912
        }
    ],
    "buffers" : [
        {
            "byteLength" : 254480,
            "uri" : "data:application/octet-stream;base64,"
        }
    ]
}
