{
    "asset" : {
        "generator" : "Khronos glTF Blender I/O v1.4.40",
        "version" : "2.0"
    },
    "scene" : 0,
    "scenes" : [
        {
            "name" : "Scene",
            "nodes" : [
                0,
                1,
                2,
                3,
                4,
                5
            ]
        }
    ],
    "nodes" : [
        {
            "name" : "Light",
            "rotation" : [
                0.16907575726509094,
                0.7558803558349609,
                -0.27217137813568115,
                0.570947527885437
            ],
            "translation" : [
                4.076245307922363,
                5.903861999511719,
                -1.0054539442062378
            ]
        },
        {
            "name" : "Camera",
            "rotation" : [
                0.483536034822464,
                0.33687159419059753,
                -0.20870360732078552,
                0.7804827094078064
            ],
            "translation" : [
                7.358891487121582,
                4.958309173583984,
                6.925790786743164
            ]
        },
        {
            "mesh" : 0,
            "name" : "path848",
            "rotation" : [
                0.7071068286895752,
                0,
                0,
                0.7071068286895752
            ],
            "scale" : [
                0.5,
                0.5,
                0.5
            ],
            "translation" : [
                -0.06499999761581421,
                -0.02500000037252903,
                0.006000000052154064
            ]
        },
        {
            "mesh" : 1,
            "name" : "path850",
            "rotation" : [
                0.7071068286895752,
                0,
                0,
                0.7071068286895752
            ],
            "scale" : [
                0.5,
                0.5,
                0.5
            ],
            "translation" : [
                -0.06499999761581421,
                -0.02500000037252903,
                0.006000000052154064
            ]
        },
        {
            "mesh" : 2,
            "name" : "path852",
            "rotation" : [
                0.7071068286895752,
                0,
                0,
                0.7071068286895752
            ],
            "scale" : [
                0.5,
                0.5,
                0.5
            ],
            "translation" : [
                -0.06499999761581421,
                -0.02500000037252903,
                0.006000000052154064
            ]
        },
        {
            "mesh" : 3,
            "name" : "path854",
            "rotation" : [
                0.7071068286895752,
                0,
                0,
                0.7071068286895752
            ],
            "scale" : [
                0.5,
                0.5,
                0.5
            ],
            "translation" : [
                -0.06499999761581421,
                -0.02500000037252903,
                0.006000000052154064
            ]
        }
    ],
    "materials" : [
        {
            "doubleSided" : true,
            "name" : "SVGMat.002",
            "pbrMetallicRoughness" : {
                "baseColorFactor" : [
                    1,
                    1,
                    0,
                    1
                ],
                "metallicFactor" : 0,
                "roughnessFactor" : 0.4000000059604645
            }
        },
        {
            "doubleSided" : true,
            "name" : "SVGMat.003",
            "pbrMetallicRoughness" : {
                "baseColorFactor" : [
                    1,
                    1,
                    0,
                    1
                ],
                "metallicFactor" : 0,
                "roughnessFactor" : 0.4000000059604645
            }
        },
        {
            "doubleSided" : true,
            "name" : "SVGMat.004",
            "pbrMetallicRoughness" : {
                "baseColorFactor" : [
                    1,
                    1,
                    0,
                    1
                ],
                "metallicFactor" : 0,
                "roughnessFactor" : 0.4000000059604645
            }
        },
        {
            "doubleSided" : true,
            "name" : "SVGMat.005",
            "pbrMetallicRoughness" : {
                "baseColorFactor" : [
                    1,
                    1,
                    0,
                    1
                ],
                "metallicFactor" : 0,
                "roughnessFactor" : 0.4000000059604645
            }
        }
    ],
    "meshes" : [
        {
            "name" : "path848",
            "primitives" : [
                {
                    "attributes" : {
                        "POSITION" : 0,
                        "NORMAL" : 1,
                        "TEXCOORD_0" : 2
                    },
                    "indices" : 3,
                    "material" : 0
                }
            ]
        },
        {
            "name" : "path850",
            "primitives" : [
                {
                    "attributes" : {
                        "POSITION" : 4,
                        "NORMAL" : 5,
                        "TEXCOORD_0" : 6
                    },
                    "indices" : 7,
                    "material" : 1
                }
            ]
        },
        {
            "name" : "path852",
            "primitives" : [
                {
                    "attributes" : {
                        "POSITION" : 8,
                        "NORMAL" : 9,
                        "TEXCOORD_0" : 10
                    },
                    "indices" : 11,
                    "material" : 2
                }
            ]
        },
        {
            "name" : "path854",
            "primitives" : [
                {
                    "attributes" : {
                        "POSITION" : 12,
                        "NORMAL" : 13,
                        "TEXCOORD_0" : 14
                    },
                    "indices" : 15,
                    "material" : 3
                }
            ]
        }
    ],
    "accessors" : [
        {
            "bufferView" : 0,
            "componentType" : 5126,
            "count" : 1349,
            "max" : [
                0.04220083728432655,
                0,
                -0.008450917899608612
            ],
            "min" : [
                0.0011244616471230984,
                -0.024000000208616257,
                -0.0896391049027443
            ],
            "type" : "VEC3"
        },
        {
            "bufferView" : 1,
            "componentType" : 5126,
            "count" : 1349,
            "type" : "VEC3"
        },
        {
            "bufferView" : 2,
            "componentType" : 5126,
            "count" : 1349,
            "type" : "VEC2"
        },
        {
            "bufferView" : 3,
            "componentType" : 5123,
            "count" : 2757,
            "type" : "SCALAR"
        },
        {
            "bufferView" : 4,
            "componentType" : 5126,
            "count" : 1881,
            "max" : [
                0.1174963191151619,
                0,
                -0.004827454686164856
            ],
            "min" : [
                0.06176421791315079,
                -0.024000000208616257,
                -0.09360238909721375
            ],
            "type" : "VEC3"
        },
        {
            "bufferView" : 5,
            "componentType" : 5126,
            "count" : 1881,
            "type" : "VEC3"
        },
        {
            "bufferView" : 6,
            "componentType" : 5126,
            "count" : 1881,
            "type" : "VEC2"
        },
        {
            "bufferView" : 7,
            "componentType" : 5123,
            "count" : 3894,
            "type" : "SCALAR"
        },
        {
            "bufferView" : 8,
            "componentType" : 5126,
            "count" : 1625,
            "max" : [
                0.18660680949687958,
                0,
                -0.01720762997865677
            ],
            "min" : [
                0.13558068871498108,
                -0.024000000208616257,
                -0.09481021016836166
            ],
            "type" : "VEC3"
        },
        {
            "bufferView" : 9,
            "componentType" : 5126,
            "count" : 1625,
            "type" : "VEC3"
        },
        {
            "bufferView" : 10,
            "componentType" : 5126,
            "count" : 1625,
            "type" : "VEC2"
        },
        {
            "bufferView" : 11,
            "componentType" : 5123,
            "count" : 3333,
            "type" : "SCALAR"
        },
        {
            "bufferView" : 12,
            "componentType" : 5126,
            "count" : 270,
            "max" : [
                0.24912896752357483,
                0,
                -0.021938271820545197
            ],
            "min" : [
                0.20650634169578552,
                -0.024000000208616257,
                -0.08756327629089355
            ],
            "type" : "VEC3"
        },
        {
            "bufferView" : 13,
            "componentType" : 5126,
            "count" : 270,
            "type" : "VEC3"
        },
        {
            "bufferView" : 14,
            "componentType" : 5126,
            "count" : 270,
            "type" : "VEC2"
        },
        {
            "bufferView" : 15,
            "componentType" : 5123,
            "count" : 558,
            "type" : "SCALAR"
        }
    ],
    "bufferViews" : [
        {
            "buffer" : 0,
            "byteLength" : 16188,
            "byteOffset" : 0
        },
        {
            "buffer" : 0,
            "byteLength" : 16188,
            "byteOffset" : 16188
        },
        {
            "buffer" : 0,
            "byteLength" : 10792,
            "byteOffset" : 32376
        },
        {
            "buffer" : 0,
            "byteLength" : 5514,
            "byteOffset" : 43168
        },
        {
            "buffer" : 0,
            "byteLength" : 22572,
            "byteOffset" : 48684
        },
        {
            "buffer" : 0,
            "byteLength" : 22572,
            "byteOffset" : 71256
        },
        {
            "buffer" : 0,
            "byteLength" : 15048,
            "byteOffset" : 93828
        },
        {
            "buffer" : 0,
            "byteLength" : 7788,
            "byteOffset" : 108876
        },
        {
            "buffer" : 0,
            "byteLength" : 19500,
            "byteOffset" : 116664
        },
        {
            "buffer" : 0,
            "byteLength" : 19500,
            "byteOffset" : 136164
        },
        {
            "buffer" : 0,
            "byteLength" : 13000,
            "byteOffset" : 155664
        },
        {
            "buffer" : 0,
            "byteLength" : 6666,
            "byteOffset" : 168664
        },
        {
            "buffer" : 0,
            "byteLength" : 3240,
            "byteOffset" : 175332
        },
        {
            "buffer" : 0,
            "byteLength" : 3240,
            "byteOffset" : 178572
        },
        {
            "buffer" : 0,
            "byteLength" : 2160,
            "byteOffset" : 181812
        },
        {
            "buffer" : 0,
            "byteLength" : 1116,
            "byteOffset" : 183972
        }
    ],
    "buffers" : [
        {
            "byteLength" : 185088,
            "uri" : "data:application/octet-stream;base64,"
        }
    ]
}
