{
    "asset" : {
        "generator" : "Khronos glTF Blender I/O v1.4.40",
        "version" : "2.0"
    },
    "scene" : 0,
    "scenes" : [
        {
            "name" : "Scene",
            "nodes" : [
                0,
                1,
                2
            ]
        }
    ],
    "nodes" : [
        {
            "name" : "Light",
            "rotation" : [
                0.16907575726509094,
                0.7558803558349609,
                -0.27217137813568115,
                0.570947527885437
            ],
            "translation" : [
                4.076245307922363,
                5.903861999511719,
                -1.0054539442062378
            ]
        },
        {
            "name" : "Camera",
            "rotation" : [
                0.483536034822464,
                0.33687159419059753,
                -0.20870360732078552,
                0.7804827094078064
            ],
            "translation" : [
                7.358891487121582,
                4.958309173583984,
                6.925790786743164
            ]
        },
        {
            "mesh" : 0,
            "name" : "path38",
            "rotation" : [
                0.7071068286895752,
                0,
                0,
                0.7071068286895752
            ],
            "scale" : [
                0.5,
                0.5,
                0.5
            ],
            "translation" : [
                -0.09999999403953552,
                -0.02499999850988388,
                0.003999999724328518
            ]
        }
    ],
    "materials" : [
        {
            "doubleSided" : true,
            "name" : "SVGMat.001",
            "pbrMetallicRoughness" : {
                "baseColorFactor" : [
                    0.1384316384792328,
                    0.2663556635379791,
                    0.9911020398139954,
                    1
                ],
                "metallicFactor" : 0,
                "roughnessFactor" : 0.4000000059604645
            }
        },
        {
            "doubleSided" : true,
            "name" : "SVGMat.002",
            "pbrMetallicRoughness" : {
                "baseColorFactor" : [
                    0.1384316384792328,
                    0.2663556635379791,
                    0.9911020398139954,
                    1
                ],
                "metallicFactor" : 0,
                "roughnessFactor" : 0.4000000059604645
            }
        },
        {
            "doubleSided" : true,
            "name" : "SVGMat.003",
            "pbrMetallicRoughness" : {
                "baseColorFactor" : [
                    0.1384316384792328,
                    0.2663556635379791,
                    0.9911020398139954,
                    1
                ],
                "metallicFactor" : 0,
                "roughnessFactor" : 0.4000000059604645
            }
        },
        {
            "doubleSided" : true,
            "name" : "SVGMat.004",
            "pbrMetallicRoughness" : {
                "baseColorFactor" : [
                    0.1384316384792328,
                    0.2663556635379791,
                    0.9911020398139954,
                    1
                ],
                "metallicFactor" : 0,
                "roughnessFactor" : 0.4000000059604645
            }
        },
        {
            "doubleSided" : true,
            "name" : "SVGMat.005",
            "pbrMetallicRoughness" : {
                "baseColorFactor" : [
                    0.1384316384792328,
                    0.2663556635379791,
                    0.9911020398139954,
                    1
                ],
                "metallicFactor" : 0,
                "roughnessFactor" : 0.4000000059604645
            }
        },
        {
            "doubleSided" : true,
            "name" : "SVGMat.006",
            "pbrMetallicRoughness" : {
                "baseColorFactor" : [
                    0.06301001459360123,
                    0.177888423204422,
                    0.9911020994186401,
                    1
                ],
                "metallicFactor" : 0,
                "roughnessFactor" : 0.4000000059604645
            }
        },
        {
            "doubleSided" : true,
            "name" : "SVGMat.007",
            "pbrMetallicRoughness" : {
                "baseColorFactor" : [
                    0.03189603239297867,
                    0.13013647496700287,
                    0.9911020994186401,
                    1
                ],
                "metallicFactor" : 0,
                "roughnessFactor" : 0.4000000059604645
            }
        }
    ],
    "meshes" : [
        {
            "name" : "path38",
            "primitives" : [
                {
                    "attributes" : {
                        "POSITION" : 0,
                        "NORMAL" : 1,
                        "TEXCOORD_0" : 2
                    },
                    "indices" : 3,
                    "material" : 0
                },
                {
                    "attributes" : {
                        "POSITION" : 4,
                        "NORMAL" : 5,
                        "TEXCOORD_0" : 6
                    },
                    "indices" : 7,
                    "material" : 1
                },
                {
                    "attributes" : {
                        "POSITION" : 8,
                        "NORMAL" : 9,
                        "TEXCOORD_0" : 10
                    },
                    "indices" : 11,
                    "material" : 2
                },
                {
                    "attributes" : {
                        "POSITION" : 12,
                        "NORMAL" : 13,
                        "TEXCOORD_0" : 14
                    },
                    "indices" : 15,
                    "material" : 3
                },
                {
                    "attributes" : {
                        "POSITION" : 16,
                        "NORMAL" : 17,
                        "TEXCOORD_0" : 18
                    },
                    "indices" : 19,
                    "material" : 4
                },
                {
                    "attributes" : {
                        "POSITION" : 20,
                        "NORMAL" : 21,
                        "TEXCOORD_0" : 22
                    },
                    "indices" : 23,
                    "material" : 5
                },
                {
                    "attributes" : {
                        "POSITION" : 24,
                        "NORMAL" : 25,
                        "TEXCOORD_0" : 26
                    },
                    "indices" : 27,
                    "material" : 6
                }
            ]
        }
    ],
    "accessors" : [
        {
            "bufferView" : 0,
            "componentType" : 5126,
            "count" : 3738,
            "max" : [
                0.3249986469745636,
                0,
                -0.00010179728269577026
            ],
            "min" : [
                0.07500149309635162,
                -0.01600000075995922,
                -0.09986893087625504
            ],
            "type" : "VEC3"
        },
        {
            "bufferView" : 1,
            "componentType" : 5126,
            "count" : 3738,
            "type" : "VEC3"
        },
        {
            "bufferView" : 2,
            "componentType" : 5126,
            "count" : 3738,
            "type" : "VEC2"
        },
        {
            "bufferView" : 3,
            "componentType" : 5123,
            "count" : 7344,
            "type" : "SCALAR"
        },
        {
            "bufferView" : 4,
            "componentType" : 5126,
            "count" : 3733,
            "max" : [
                0.3249798119068146,
                0,
                -2.4959444999694824e-06
            ],
            "min" : [
                0.07501180469989777,
                -0.01600000075995922,
                -0.09996823966503143
            ],
            "type" : "VEC3"
        },
        {
            "bufferView" : 5,
            "componentType" : 5126,
            "count" : 3733,
            "type" : "VEC3"
        },
        {
            "bufferView" : 6,
            "componentType" : 5126,
            "count" : 3733,
            "type" : "VEC2"
        },
        {
            "bufferView" : 7,
            "componentType" : 5123,
            "count" : 7308,
            "type" : "SCALAR"
        },
        {
            "bufferView" : 8,
            "componentType" : 5126,
            "count" : 3692,
            "max" : [
                0.3250064551830292,
                0,
                -7.450580596923828e-09
            ],
            "min" : [
                0.07511099427938461,
                -0.01600000075995922,
                -0.09997434914112091
            ],
            "type" : "VEC3"
        },
        {
            "bufferView" : 9,
            "componentType" : 5126,
            "count" : 3692,
            "type" : "VEC3"
        },
        {
            "bufferView" : 10,
            "componentType" : 5126,
            "count" : 3692,
            "type" : "VEC2"
        },
        {
            "bufferView" : 11,
            "componentType" : 5123,
            "count" : 7248,
            "type" : "SCALAR"
        },
        {
            "bufferView" : 12,
            "componentType" : 5126,
            "count" : 3720,
            "max" : [
                0.324981153011322,
                0,
                -3.4123659133911133e-06
            ],
            "min" : [
                0.07501339912414551,
                -0.01600000075995922,
                -0.09998086839914322
            ],
            "type" : "VEC3"
        },
        {
            "bufferView" : 13,
            "componentType" : 5126,
            "count" : 3720,
            "type" : "VEC3"
        },
        {
            "bufferView" : 14,
            "componentType" : 5126,
            "count" : 3720,
            "type" : "VEC2"
        },
        {
            "bufferView" : 15,
            "componentType" : 5123,
            "count" : 7272,
            "type" : "SCALAR"
        },
        {
            "bufferView" : 16,
            "componentType" : 5126,
            "count" : 3554,
            "max" : [
                0.3248821794986725,
                0,
                -0.00012207776308059692
            ],
            "min" : [
                0.07511099427938461,
                -0.01600000075995922,
                -0.0999518558382988
            ],
            "type" : "VEC3"
        },
        {
            "bufferView" : 17,
            "componentType" : 5126,
            "count" : 3554,
            "type" : "VEC3"
        },
        {
            "bufferView" : 18,
            "componentType" : 5126,
            "count" : 3554,
            "type" : "VEC2"
        },
        {
            "bufferView" : 19,
            "componentType" : 5123,
            "count" : 6996,
            "type" : "SCALAR"
        },
        {
            "bufferView" : 20,
            "componentType" : 5126,
            "count" : 3724,
            "max" : [
                0.3248821794986725,
                0,
                -0.0001246631145477295
            ],
            "min" : [
                0.07501180469989777,
                -0.01600000075995922,
                -0.09984603524208069
            ],
            "type" : "VEC3"
        },
        {
            "bufferView" : 21,
            "componentType" : 5126,
            "count" : 3724,
            "type" : "VEC3"
        },
        {
            "bufferView" : 22,
            "componentType" : 5126,
            "count" : 3724,
            "type" : "VEC2"
        },
        {
            "bufferView" : 23,
            "componentType" : 5123,
            "count" : 7272,
            "type" : "SCALAR"
        },
        {
            "bufferView" : 24,
            "componentType" : 5126,
            "count" : 3596,
            "max" : [
                0.32460635900497437,
                0,
                -0.0002276897430419922
            ],
            "min" : [
                0.07501816749572754,
                -0.01600000075995922,
                -0.09975989162921906
            ],
            "type" : "VEC3"
        },
        {
            "bufferView" : 25,
            "componentType" : 5126,
            "count" : 3596,
            "type" : "VEC3"
        },
        {
            "bufferView" : 26,
            "componentType" : 5126,
            "count" : 3596,
            "type" : "VEC2"
        },
        {
            "bufferView" : 27,
            "componentType" : 5123,
            "count" : 7026,
            "type" : "SCALAR"
        }
    ],
    "bufferViews" : [
        {
            "buffer" : 0,
            "byteLength" : 44856,
            "byteOffset" : 0
        },
        {
            "buffer" : 0,
            "byteLength" : 44856,
            "byteOffset" : 44856
        },
        {
            "buffer" : 0,
            "byteLength" : 29904,
            "byteOffset" : 89712
        },
        {
            "buffer" : 0,
            "byteLength" : 14688,
            "byteOffset" : 119616
        },
        {
            "buffer" : 0,
            "byteLength" : 44796,
            "byteOffset" : 134304
        },
        {
            "buffer" : 0,
            "byteLength" : 44796,
            "byteOffset" : 179100
        },
        {
            "buffer" : 0,
            "byteLength" : 29864,
            "byteOffset" : 223896
        },
        {
            "buffer" : 0,
            "byteLength" : 14616,
            "byteOffset" : 253760
        },
        {
            "buffer" : 0,
            "byteLength" : 44304,
            "byteOffset" : 268376
        },
        {
            "buffer" : 0,
            "byteLength" : 44304,
            "byteOffset" : 312680
        },
        {
            "buffer" : 0,
            "byteLength" : 29536,
            "byteOffset" : 356984
        },
        {
            "buffer" : 0,
            "byteLength" : 14496,
            "byteOffset" : 386520
        },
        {
            "buffer" : 0,
            "byteLength" : 44640,
            "byteOffset" : 401016
        },
        {
            "buffer" : 0,
            "byteLength" : 44640,
            "byteOffset" : 445656
        },
        {
            "buffer" : 0,
            "byteLength" : 29760,
            "byteOffset" : 490296
        },
        {
            "buffer" : 0,
            "byteLength" : 14544,
            "byteOffset" : 520056
        },
        {
            "buffer" : 0,
            "byteLength" : 42648,
            "byteOffset" : 534600
        },
        {
            "buffer" : 0,
            "byteLength" : 42648,
            "byteOffset" : 577248
        },
        {
            "buffer" : 0,
            "byteLength" : 28432,
            "byteOffset" : 619896
        },
        {
            "buffer" : 0,
            "byteLength" : 13992,
            "byteOffset" : 648328
        },
        {
            "buffer" : 0,
            "byteLength" : 44688,
            "byteOffset" : 662320
        },
        {
            "buffer" : 0,
            "byteLength" : 44688,
            "byteOffset" : 707008
        },
        {
            "buffer" : 0,
            "byteLength" : 29792,
            "byteOffset" : 751696
        },
        {
            "buffer" : 0,
            "byteLength" : 14544,
            "byteOffset" : 781488
        },
        {
            "buffer" : 0,
            "byteLength" : 43152,
            "byteOffset" : 796032
        },
        {
            "buffer" : 0,
            "byteLength" : 43152,
            "byteOffset" : 839184
        },
        {
            "buffer" : 0,
            "byteLength" : 28768,
            "byteOffset" : 882336
        },
        {
            "buffer" : 0,
            "byteLength" : 14052,
            "byteOffset" : 911104
        }
    ],
    "buffers" : [
        {
            "byteLength" : 925156,
            "uri" : "data:application/octet-stream;base64,"
        }
    ]
}
