{
    "asset" : {
        "generator" : "Khronos glTF Blender I/O v1.4.40",
        "version" : "2.0"
    },
    "scene" : 0,
    "scenes" : [
        {
            "name" : "Scene",
            "nodes" : [
                0,
                1,
                2
            ]
        }
    ],
    "nodes" : [
        {
            "name" : "Light",
            "rotation" : [
                0.16907575726509094,
                0.7558803558349609,
                -0.27217137813568115,
                0.570947527885437
            ],
            "translation" : [
                4.076245307922363,
                5.903861999511719,
                -1.0054539442062378
            ]
        },
        {
            "name" : "Camera",
            "rotation" : [
                0.483536034822464,
                0.33687159419059753,
                -0.20870360732078552,
                0.7804827094078064
            ],
            "translation" : [
                7.358891487121582,
                4.958309173583984,
                6.925790786743164
            ]
        },
        {
            "mesh" : 0,
            "name" : "path54",
            "rotation" : [
                0.7071068286895752,
                0,
                0,
                0.7071068286895752
            ],
            "scale" : [
                0.5,
                0.5,
                0.5
            ],
            "translation" : [
                -0.02499999850988388,
                -0.02499999850988388,
                0.02499999850988388
            ]
        }
    ],
    "materials" : [
        {
            "doubleSided" : true,
            "name" : "SVGMat.001",
            "pbrMetallicRoughness" : {
                "baseColorFactor" : [
                    0.012982934713363647,
                    0.18447506427764893,
                    0.5332765579223633,
                    1
                ],
                "metallicFactor" : 0,
                "roughnessFactor" : 0.4000000059604645
            }
        },
        {
            "doubleSided" : true,
            "name" : "SVGMat.002",
            "pbrMetallicRoughness" : {
                "baseColorFactor" : [
                    0.012982934713363647,
                    0.18447506427764893,
                    0.5332765579223633,
                    1
                ],
                "metallicFactor" : 0,
                "roughnessFactor" : 0.4000000059604645
            }
        },
        {
            "doubleSided" : true,
            "name" : "SVGMat.003",
            "pbrMetallicRoughness" : {
                "baseColorFactor" : [
                    0.012982934713363647,
                    0.18447506427764893,
                    0.5332765579223633,
                    1
                ],
                "metallicFactor" : 0,
                "roughnessFactor" : 0.4000000059604645
            }
        },
        {
            "doubleSided" : true,
            "name" : "SVGMat.004",
            "pbrMetallicRoughness" : {
                "baseColorFactor" : [
                    0.012982934713363647,
                    0.18447506427764893,
                    0.5332765579223633,
                    1
                ],
                "metallicFactor" : 0,
                "roughnessFactor" : 0.4000000059604645
            }
        },
        {
            "doubleSided" : true,
            "name" : "SVGMat.005",
            "pbrMetallicRoughness" : {
                "baseColorFactor" : [
                    0.012982934713363647,
                    0.18447506427764893,
                    0.5332765579223633,
                    1
                ],
                "metallicFactor" : 0,
                "roughnessFactor" : 0.4000000059604645
            }
        },
        {
            "doubleSided" : true,
            "name" : "SVGMat.006",
            "pbrMetallicRoughness" : {
                "baseColorFactor" : [
                    0,
                    0.12743768095970154,
                    0.44520118832588196,
                    1
                ],
                "metallicFactor" : 0,
                "roughnessFactor" : 0.4000000059604645
            }
        },
        {
            "doubleSided" : true,
            "name" : "SVGMat.007",
            "pbrMetallicRoughness" : {
                "baseColorFactor" : [
                    0.0003035269910469651,
                    0.12477181851863861,
                    0.41788506507873535,
                    1
                ],
                "metallicFactor" : 0,
                "roughnessFactor" : 0.4000000059604645
            }
        }
    ],
    "meshes" : [
        {
            "name" : "path54",
            "primitives" : [
                {
                    "attributes" : {
                        "POSITION" : 0,
                        "NORMAL" : 1,
                        "TEXCOORD_0" : 2
                    },
                    "indices" : 3,
                    "material" : 0
                },
                {
                    "attributes" : {
                        "POSITION" : 4,
                        "NORMAL" : 5,
                        "TEXCOORD_0" : 6
                    },
                    "indices" : 7,
                    "material" : 1
                },
                {
                    "attributes" : {
                        "POSITION" : 8,
                        "NORMAL" : 9,
                        "TEXCOORD_0" : 10
                    },
                    "indices" : 11,
                    "material" : 2
                },
                {
                    "attributes" : {
                        "POSITION" : 12,
                        "NORMAL" : 13,
                        "TEXCOORD_0" : 14
                    },
                    "indices" : 15,
                    "material" : 3
                },
                {
                    "attributes" : {
                        "POSITION" : 16,
                        "NORMAL" : 17,
                        "TEXCOORD_0" : 18
                    },
                    "indices" : 19,
                    "material" : 4
                },
                {
                    "attributes" : {
                        "POSITION" : 20,
                        "NORMAL" : 21,
                        "TEXCOORD_0" : 22
                    },
                    "indices" : 23,
                    "material" : 5
                },
                {
                    "attributes" : {
                        "POSITION" : 24,
                        "NORMAL" : 25,
                        "TEXCOORD_0" : 26
                    },
                    "indices" : 27,
                    "material" : 6
                }
            ]
        }
    ],
    "accessors" : [
        {
            "bufferView" : 0,
            "componentType" : 5126,
            "count" : 238,
            "max" : [
                0.10000200569629669,
                0,
                -0.0012164413928985596
            ],
            "min" : [
                3.725290298461914e-09,
                -0.05999999865889549,
                -0.09786461293697357
            ],
            "type" : "VEC3"
        },
        {
            "bufferView" : 1,
            "componentType" : 5126,
            "count" : 238,
            "type" : "VEC3"
        },
        {
            "bufferView" : 2,
            "componentType" : 5126,
            "count" : 238,
            "type" : "VEC2"
        },
        {
            "bufferView" : 3,
            "componentType" : 5123,
            "count" : 480,
            "type" : "SCALAR"
        },
        {
            "bufferView" : 4,
            "componentType" : 5126,
            "count" : 248,
            "max" : [
                0.10000200569629669,
                0,
                -0.0012164413928985596
            ],
            "min" : [
                3.725290298461914e-09,
                -0.05999999865889549,
                -0.09786461293697357
            ],
            "type" : "VEC3"
        },
        {
            "bufferView" : 5,
            "componentType" : 5126,
            "count" : 248,
            "type" : "VEC3"
        },
        {
            "bufferView" : 6,
            "componentType" : 5126,
            "count" : 248,
            "type" : "VEC2"
        },
        {
            "bufferView" : 7,
            "componentType" : 5123,
            "count" : 522,
            "type" : "SCALAR"
        },
        {
            "bufferView" : 8,
            "componentType" : 5126,
            "count" : 254,
            "max" : [
                0.10000200569629669,
                0,
                -0.0012164413928985596
            ],
            "min" : [
                3.725290298461914e-09,
                -0.05999999865889549,
                -0.09786461293697357
            ],
            "type" : "VEC3"
        },
        {
            "bufferView" : 9,
            "componentType" : 5126,
            "count" : 254,
            "type" : "VEC3"
        },
        {
            "bufferView" : 10,
            "componentType" : 5126,
            "count" : 254,
            "type" : "VEC2"
        },
        {
            "bufferView" : 11,
            "componentType" : 5123,
            "count" : 540,
            "type" : "SCALAR"
        },
        {
            "bufferView" : 12,
            "componentType" : 5126,
            "count" : 258,
            "max" : [
                0.10000200569629669,
                0,
                -0.0012164413928985596
            ],
            "min" : [
                3.725290298461914e-09,
                -0.05999999865889549,
                -0.09786461293697357
            ],
            "type" : "VEC3"
        },
        {
            "bufferView" : 13,
            "componentType" : 5126,
            "count" : 258,
            "type" : "VEC3"
        },
        {
            "bufferView" : 14,
            "componentType" : 5126,
            "count" : 258,
            "type" : "VEC2"
        },
        {
            "bufferView" : 15,
            "componentType" : 5123,
            "count" : 546,
            "type" : "SCALAR"
        },
        {
            "bufferView" : 16,
            "componentType" : 5126,
            "count" : 230,
            "max" : [
                0.10000200569629669,
                0,
                -0.0012164413928985596
            ],
            "min" : [
                3.725290298461914e-09,
                -0.05999999865889549,
                -0.09786461293697357
            ],
            "type" : "VEC3"
        },
        {
            "bufferView" : 17,
            "componentType" : 5126,
            "count" : 230,
            "type" : "VEC3"
        },
        {
            "bufferView" : 18,
            "componentType" : 5126,
            "count" : 230,
            "type" : "VEC2"
        },
        {
            "bufferView" : 19,
            "componentType" : 5123,
            "count" : 486,
            "type" : "SCALAR"
        },
        {
            "bufferView" : 20,
            "componentType" : 5126,
            "count" : 238,
            "max" : [
                0.10000200569629669,
                0,
                -0.0012164413928985596
            ],
            "min" : [
                3.725290298461914e-09,
                -0.05999999865889549,
                -0.09786461293697357
            ],
            "type" : "VEC3"
        },
        {
            "bufferView" : 21,
            "componentType" : 5126,
            "count" : 238,
            "type" : "VEC3"
        },
        {
            "bufferView" : 22,
            "componentType" : 5126,
            "count" : 238,
            "type" : "VEC2"
        },
        {
            "bufferView" : 23,
            "componentType" : 5123,
            "count" : 504,
            "type" : "SCALAR"
        },
        {
            "bufferView" : 24,
            "componentType" : 5126,
            "count" : 2076,
            "max" : [
                0.0987967923283577,
                0,
                -0.0011508911848068237
            ],
            "min" : [
                0.0002777869813144207,
                -0.05999999865889549,
                -0.09735243767499924
            ],
            "type" : "VEC3"
        },
        {
            "bufferView" : 25,
            "componentType" : 5126,
            "count" : 2076,
            "type" : "VEC3"
        },
        {
            "bufferView" : 26,
            "componentType" : 5126,
            "count" : 2076,
            "type" : "VEC2"
        },
        {
            "bufferView" : 27,
            "componentType" : 5123,
            "count" : 3234,
            "type" : "SCALAR"
        }
    ],
    "bufferViews" : [
        {
            "buffer" : 0,
            "byteLength" : 2856,
            "byteOffset" : 0
        },
        {
            "buffer" : 0,
            "byteLength" : 2856,
            "byteOffset" : 2856
        },
        {
            "buffer" : 0,
            "byteLength" : 1904,
            "byteOffset" : 5712
        },
        {
            "buffer" : 0,
            "byteLength" : 960,
            "byteOffset" : 7616
        },
        {
            "buffer" : 0,
            "byteLength" : 2976,
            "byteOffset" : 8576
        },
        {
            "buffer" : 0,
            "byteLength" : 2976,
            "byteOffset" : 11552
        },
        {
            "buffer" : 0,
            "byteLength" : 1984,
            "byteOffset" : 14528
        },
        {
            "buffer" : 0,
            "byteLength" : 1044,
            "byteOffset" : 16512
        },
        {
            "buffer" : 0,
            "byteLength" : 3048,
            "byteOffset" : 17556
        },
        {
            "buffer" : 0,
            "byteLength" : 3048,
            "byteOffset" : 20604
        },
        {
            "buffer" : 0,
            "byteLength" : 2032,
            "byteOffset" : 23652
        },
        {
            "buffer" : 0,
            "byteLength" : 1080,
            "byteOffset" : 25684
        },
        {
            "buffer" : 0,
            "byteLength" : 3096,
            "byteOffset" : 26764
        },
        {
            "buffer" : 0,
            "byteLength" : 3096,
            "byteOffset" : 29860
        },
        {
            "buffer" : 0,
            "byteLength" : 2064,
            "byteOffset" : 32956
        },
        {
            "buffer" : 0,
            "byteLength" : 1092,
            "byteOffset" : 35020
        },
        {
            "buffer" : 0,
            "byteLength" : 2760,
            "byteOffset" : 36112
        },
        {
            "buffer" : 0,
            "byteLength" : 2760,
            "byteOffset" : 38872
        },
        {
            "buffer" : 0,
            "byteLength" : 1840,
            "byteOffset" : 41632
        },
        {
            "buffer" : 0,
            "byteLength" : 972,
            "byteOffset" : 43472
        },
        {
            "buffer" : 0,
            "byteLength" : 2856,
            "byteOffset" : 44444
        },
        {
            "buffer" : 0,
            "byteLength" : 2856,
            "byteOffset" : 47300
        },
        {
            "buffer" : 0,
            "byteLength" : 1904,
            "byteOffset" : 50156
        },
        {
            "buffer" : 0,
            "byteLength" : 1008,
            "byteOffset" : 52060
        },
        {
            "buffer" : 0,
            "byteLength" : 24912,
            "byteOffset" : 53068
        },
        {
            "buffer" : 0,
            "byteLength" : 24912,
            "byteOffset" : 77980
        },
        {
            "buffer" : 0,
            "byteLength" : 16608,
            "byteOffset" : 102892
        },
        {
            "buffer" : 0,
            "byteLength" : 6468,
            "byteOffset" : 119500
        }
    ],
    "buffers" : [
        {
            "byteLength" : 125968,
            "uri" : "data:application/octet-stream;base64,"
        }
    ]
}
