{
    "asset" : {
        "generator" : "Khronos glTF Blender I/O v1.4.40",
        "version" : "2.0"
    },
    "scene" : 0,
    "scenes" : [
        {
            "name" : "Scene",
            "nodes" : [
                0,
                1,
                2
            ]
        }
    ],
    "nodes" : [
        {
            "name" : "Light",
            "rotation" : [
                0.16907575726509094,
                0.7558803558349609,
                -0.27217137813568115,
                0.570947527885437
            ],
            "translation" : [
                4.076245307922363,
                5.903861999511719,
                -1.0054539442062378
            ]
        },
        {
            "name" : "Camera",
            "rotation" : [
                0.483536034822464,
                0.33687159419059753,
                -0.20870360732078552,
                0.7804827094078064
            ],
            "translation" : [
                7.358891487121582,
                4.958309173583984,
                6.925790786743164
            ]
        },
        {
            "mesh" : 0,
            "name" : "Curve.009",
            "rotation" : [
                0.7071068286895752,
                0,
                0,
                0.7071068286895752
            ],
            "scale" : [
                0.5,
                0.5,
                0.5
            ]
        }
    ],
    "materials" : [
        {
            "doubleSided" : true,
            "name" : "SVGMat.004",
            "pbrMetallicRoughness" : {
                "baseColorFactor" : [
                    0.7912979125976562,
                    0.08650045841932297,
                    0.006048833020031452,
                    1
                ],
                "metallicFactor" : 0,
                "roughnessFactor" : 0.4000000059604645
            }
        },
        {
            "doubleSided" : true,
            "name" : "SVGMat.002",
            "pbrMetallicRoughness" : {
                "baseColorFactor" : [
                    0.07227185368537903,
                    0.039546236395835876,
                    0.008568125776946545,
                    1
                ],
                "metallicFactor" : 0,
                "roughnessFactor" : 0.4000000059604645
            }
        },
        {
            "doubleSided" : true,
            "name" : "SVGMat.005",
            "pbrMetallicRoughness" : {
                "baseColorFactor" : [
                    0.8796223998069763,
                    0.34670406579971313,
                    0.0027317428030073643,
                    1
                ],
                "metallicFactor" : 0,
                "roughnessFactor" : 0.4000000059604645
            }
        },
        {
            "doubleSided" : true,
            "name" : "SVGMat.006",
            "pbrMetallicRoughness" : {
                "baseColorFactor" : [
                    0.33716362714767456,
                    0.33716362714767456,
                    0.33716362714767456,
                    1
                ],
                "metallicFactor" : 0,
                "roughnessFactor" : 0.4000000059604645
            }
        },
        {
            "doubleSided" : true,
            "name" : "SVGMat.007",
            "pbrMetallicRoughness" : {
                "baseColorFactor" : [
                    0.6583748459815979,
                    0.6583748459815979,
                    0.6583748459815979,
                    1
                ],
                "metallicFactor" : 0,
                "roughnessFactor" : 0.4000000059604645
            }
        }
    ],
    "meshes" : [
        {
            "name" : "Curve.009",
            "primitives" : [
                {
                    "attributes" : {
                        "POSITION" : 0,
                        "NORMAL" : 1,
                        "TEXCOORD_0" : 2
                    },
                    "indices" : 3,
                    "material" : 0
                },
                {
                    "attributes" : {
                        "POSITION" : 4,
                        "NORMAL" : 5,
                        "TEXCOORD_0" : 6
                    },
                    "indices" : 7,
                    "material" : 1
                },
                {
                    "attributes" : {
                        "POSITION" : 8,
                        "NORMAL" : 9,
                        "TEXCOORD_0" : 10
                    },
                    "indices" : 11,
                    "material" : 2
                },
                {
                    "attributes" : {
                        "POSITION" : 12,
                        "NORMAL" : 13,
                        "TEXCOORD_0" : 14
                    },
                    "indices" : 15,
                    "material" : 3
                },
                {
                    "attributes" : {
                        "POSITION" : 16,
                        "NORMAL" : 17,
                        "TEXCOORD_0" : 18
                    },
                    "indices" : 19,
                    "material" : 4
                }
            ]
        }
    ],
    "accessors" : [
        {
            "bufferView" : 0,
            "componentType" : 5126,
            "count" : 4125,
            "max" : [
                0.3241107165813446,
                0,
                -0.011314943432807922
            ],
            "min" : [
                0.00338673684746027,
                -0.05000000074505806,
                -0.23625963926315308
            ],
            "type" : "VEC3"
        },
        {
            "bufferView" : 1,
            "componentType" : 5126,
            "count" : 4125,
            "type" : "VEC3"
        },
        {
            "bufferView" : 2,
            "componentType" : 5126,
            "count" : 4125,
            "type" : "VEC2"
        },
        {
            "bufferView" : 3,
            "componentType" : 5123,
            "count" : 8286,
            "type" : "SCALAR"
        },
        {
            "bufferView" : 4,
            "componentType" : 5126,
            "count" : 1658,
            "max" : [
                0.3292190432548523,
                0,
                -0.07481575012207031
            ],
            "min" : [
                0.0905105397105217,
                -0.05000000074505806,
                -0.23625963926315308
            ],
            "type" : "VEC3"
        },
        {
            "bufferView" : 5,
            "componentType" : 5126,
            "count" : 1658,
            "type" : "VEC3"
        },
        {
            "bufferView" : 6,
            "componentType" : 5126,
            "count" : 1658,
            "type" : "VEC2"
        },
        {
            "bufferView" : 7,
            "componentType" : 5123,
            "count" : 3408,
            "type" : "SCALAR"
        },
        {
            "bufferView" : 8,
            "componentType" : 5126,
            "count" : 1712,
            "max" : [
                0.3241107165813446,
                0,
                -0.011314943432807922
            ],
            "min" : [
                0.00338673684746027,
                -0.05000000074505806,
                -0.22629909217357635
            ],
            "type" : "VEC3"
        },
        {
            "bufferView" : 9,
            "componentType" : 5126,
            "count" : 1712,
            "type" : "VEC3"
        },
        {
            "bufferView" : 10,
            "componentType" : 5126,
            "count" : 1712,
            "type" : "VEC2"
        },
        {
            "bufferView" : 11,
            "componentType" : 5123,
            "count" : 3504,
            "type" : "SCALAR"
        },
        {
            "bufferView" : 12,
            "componentType" : 5126,
            "count" : 26658,
            "max" : [
                0.3366108536720276,
                0,
                -0.004504101350903511
            ],
            "min" : [
                0.008184613659977913,
                -0.05000000074505806,
                -0.23702149093151093
            ],
            "type" : "VEC3"
        },
        {
            "bufferView" : 13,
            "componentType" : 5126,
            "count" : 26658,
            "type" : "VEC3"
        },
        {
            "bufferView" : 14,
            "componentType" : 5126,
            "count" : 26658,
            "type" : "VEC2"
        },
        {
            "bufferView" : 15,
            "componentType" : 5123,
            "count" : 53424,
            "type" : "SCALAR"
        },
        {
            "bufferView" : 16,
            "componentType" : 5126,
            "count" : 23669,
            "max" : [
                0.33659669756889343,
                0,
                -0.0045217303559184074
            ],
            "min" : [
                0.008184613659977913,
                -0.05000000074505806,
                -0.23702149093151093
            ],
            "type" : "VEC3"
        },
        {
            "bufferView" : 17,
            "componentType" : 5126,
            "count" : 23669,
            "type" : "VEC3"
        },
        {
            "bufferView" : 18,
            "componentType" : 5126,
            "count" : 23669,
            "type" : "VEC2"
        },
        {
            "bufferView" : 19,
            "componentType" : 5123,
            "count" : 47436,
            "type" : "SCALAR"
        }
    ],
    "bufferViews" : [
        {
            "buffer" : 0,
            "byteLength" : 49500,
            "byteOffset" : 0
        },
        {
            "buffer" : 0,
            "byteLength" : 49500,
            "byteOffset" : 49500
        },
        {
            "buffer" : 0,
            "byteLength" : 33000,
            "byteOffset" : 99000
        },
        {
            "buffer" : 0,
            "byteLength" : 16572,
            "byteOffset" : 132000
        },
        {
            "buffer" : 0,
            "byteLength" : 19896,
            "byteOffset" : 148572
        },
        {
            "buffer" : 0,
            "byteLength" : 19896,
            "byteOffset" : 168468
        },
        {
            "buffer" : 0,
            "byteLength" : 13264,
            "byteOffset" : 188364
        },
        {
            "buffer" : 0,
            "byteLength" : 6816,
            "byteOffset" : 201628
        },
        {
            "buffer" : 0,
            "byteLength" : 20544,
            "byteOffset" : 208444
        },
        {
            "buffer" : 0,
            "byteLength" : 20544,
            "byteOffset" : 228988
        },
        {
            "buffer" : 0,
            "byteLength" : 13696,
            "byteOffset" : 249532
        },
        {
            "buffer" : 0,
            "byteLength" : 7008,
            "byteOffset" : 263228
        },
        {
            "buffer" : 0,
            "byteLength" : 319896,
            "byteOffset" : 270236
        },
        {
            "buffer" : 0,
            "byteLength" : 319896,
            "byteOffset" : 590132
        },
        {
            "buffer" : 0,
            "byteLength" : 213264,
            "byteOffset" : 910028
        },
        {
            "buffer" : 0,
            "byteLength" : 106848,
            "byteOffset" : 1123292
        },
        {
            "buffer" : 0,
            "byteLength" : 284028,
            "byteOffset" : 1230140
        },
        {
            "buffer" : 0,
            "byteLength" : 284028,
            "byteOffset" : 1514168
        },
        {
            "buffer" : 0,
            "byteLength" : 189352,
            "byteOffset" : 1798196
        },
        {
            "buffer" : 0,
            "byteLength" : 94872,
            "byteOffset" : 1987548
        }
    ],
    "buffers" : [
        {
            "byteLength" : 2082420,
            "uri" : "data:application/octet-stream;base64,"
        }
    ]
}
