{
    "asset" : {
        "generator" : "Khronos glTF Blender I/O v1.4.40",
        "version" : "2.0"
    },
    "scene" : 0,
    "scenes" : [
        {
            "name" : "Scene",
            "nodes" : [
                0,
                1,
                2
            ]
        }
    ],
    "nodes" : [
        {
            "name" : "Light",
            "rotation" : [
                0.16907575726509094,
                0.7558803558349609,
                -0.27217137813568115,
                0.570947527885437
            ],
            "translation" : [
                4.076245307922363,
                5.903861999511719,
                -1.0054539442062378
            ]
        },
        {
            "name" : "Camera",
            "rotation" : [
                0.483536034822464,
                0.33687159419059753,
                -0.20870360732078552,
                0.7804827094078064
            ],
            "translation" : [
                7.358891487121582,
                4.958309173583984,
                6.925790786743164
            ]
        },
        {
            "mesh" : 0,
            "name" : "path52",
            "rotation" : [
                0.7071068286895752,
                0,
                0,
                0.7071068286895752
            ],
            "scale" : [
                0.5,
                0.5,
                0.5
            ],
            "translation" : [
                -0.0625,
                -0.02499999850988388,
                0.007999999448657036
            ]
        }
    ],
    "materials" : [
        {
            "doubleSided" : true,
            "name" : "SVGMat.001",
            "pbrMetallicRoughness" : {
                "baseColorFactor" : [
                    0.045186132192611694,
                    0.21952621638774872,
                    0.5149176120758057,
                    1
                ],
                "metallicFactor" : 0,
                "roughnessFactor" : 0.4000000059604645
            }
        },
        {
            "doubleSided" : true,
            "name" : "SVGMat.002",
            "pbrMetallicRoughness" : {
                "baseColorFactor" : [
                    0.045186132192611694,
                    0.21952621638774872,
                    0.5149176120758057,
                    1
                ],
                "metallicFactor" : 0,
                "roughnessFactor" : 0.4000000059604645
            }
        },
        {
            "doubleSided" : true,
            "name" : "SVGMat.003",
            "pbrMetallicRoughness" : {
                "baseColorFactor" : [
                    0.16826939582824707,
                    0.366252601146698,
                    0.6239603757858276,
                    1
                ],
                "metallicFactor" : 0,
                "roughnessFactor" : 0.4000000059604645
            }
        },
        {
            "doubleSided" : true,
            "name" : "SVGMat.004",
            "pbrMetallicRoughness" : {
                "baseColorFactor" : [
                    0.07421350479125977,
                    0.25818300247192383,
                    0.5457248091697693,
                    1
                ],
                "metallicFactor" : 0,
                "roughnessFactor" : 0.4000000059604645
            }
        },
        {
            "doubleSided" : true,
            "name" : "SVGMat.005",
            "pbrMetallicRoughness" : {
                "baseColorFactor" : [
                    0.045186132192611694,
                    0.21952621638774872,
                    0.5149176120758057,
                    1
                ],
                "metallicFactor" : 0,
                "roughnessFactor" : 0.4000000059604645
            }
        },
        {
            "doubleSided" : true,
            "name" : "SVGMat.006",
            "pbrMetallicRoughness" : {
                "baseColorFactor" : [
                    0.006048833020031452,
                    0.13286831974983215,
                    0.43415364623069763,
                    1
                ],
                "metallicFactor" : 0,
                "roughnessFactor" : 0.4000000059604645
            }
        },
        {
            "doubleSided" : true,
            "name" : "SVGMat.007",
            "pbrMetallicRoughness" : {
                "baseColorFactor" : [
                    0,
                    0.10224173218011856,
                    0.4019777774810791,
                    1
                ],
                "metallicFactor" : 0,
                "roughnessFactor" : 0.4000000059604645
            }
        }
    ],
    "meshes" : [
        {
            "name" : "path52",
            "primitives" : [
                {
                    "attributes" : {
                        "POSITION" : 0,
                        "NORMAL" : 1,
                        "TEXCOORD_0" : 2
                    },
                    "indices" : 3,
                    "material" : 0
                },
                {
                    "attributes" : {
                        "POSITION" : 4,
                        "NORMAL" : 5,
                        "TEXCOORD_0" : 6
                    },
                    "indices" : 7,
                    "material" : 1
                },
                {
                    "attributes" : {
                        "POSITION" : 8,
                        "NORMAL" : 9,
                        "TEXCOORD_0" : 10
                    },
                    "indices" : 11,
                    "material" : 2
                },
                {
                    "attributes" : {
                        "POSITION" : 12,
                        "NORMAL" : 13,
                        "TEXCOORD_0" : 14
                    },
                    "indices" : 15,
                    "material" : 3
                },
                {
                    "attributes" : {
                        "POSITION" : 16,
                        "NORMAL" : 17,
                        "TEXCOORD_0" : 18
                    },
                    "indices" : 19,
                    "material" : 4
                },
                {
                    "attributes" : {
                        "POSITION" : 20,
                        "NORMAL" : 21,
                        "TEXCOORD_0" : 22
                    },
                    "indices" : 23,
                    "material" : 5
                },
                {
                    "attributes" : {
                        "POSITION" : 24,
                        "NORMAL" : 25,
                        "TEXCOORD_0" : 26
                    },
                    "indices" : 27,
                    "material" : 6
                }
            ]
        }
    ],
    "accessors" : [
        {
            "bufferView" : 0,
            "componentType" : 5126,
            "count" : 818,
            "max" : [
                0.24730101227760315,
                0,
                -0.027505822479724884
            ],
            "min" : [
                0.003315096255391836,
                -0.01600000075995922,
                -0.07635419070720673
            ],
            "type" : "VEC3"
        },
        {
            "bufferView" : 1,
            "componentType" : 5126,
            "count" : 818,
            "type" : "VEC3"
        },
        {
            "bufferView" : 2,
            "componentType" : 5126,
            "count" : 818,
            "type" : "VEC2"
        },
        {
            "bufferView" : 3,
            "componentType" : 5123,
            "count" : 1668,
            "type" : "SCALAR"
        },
        {
            "bufferView" : 4,
            "componentType" : 5126,
            "count" : 880,
            "max" : [
                0.24752090871334076,
                0,
                -0.02762708067893982
            ],
            "min" : [
                0.003315096255391836,
                -0.01600000075995922,
                -0.07621606439352036
            ],
            "type" : "VEC3"
        },
        {
            "bufferView" : 5,
            "componentType" : 5126,
            "count" : 880,
            "type" : "VEC3"
        },
        {
            "bufferView" : 6,
            "componentType" : 5126,
            "count" : 880,
            "type" : "VEC2"
        },
        {
            "bufferView" : 7,
            "componentType" : 5123,
            "count" : 1740,
            "type" : "SCALAR"
        },
        {
            "bufferView" : 8,
            "componentType" : 5126,
            "count" : 842,
            "max" : [
                0.24745802581310272,
                0,
                -0.02762708067893982
            ],
            "min" : [
                0.00430289376527071,
                -0.01600000075995922,
                -0.07621606439352036
            ],
            "type" : "VEC3"
        },
        {
            "bufferView" : 9,
            "componentType" : 5126,
            "count" : 842,
            "type" : "VEC3"
        },
        {
            "bufferView" : 10,
            "componentType" : 5126,
            "count" : 842,
            "type" : "VEC2"
        },
        {
            "bufferView" : 11,
            "componentType" : 5123,
            "count" : 1638,
            "type" : "SCALAR"
        },
        {
            "bufferView" : 12,
            "componentType" : 5126,
            "count" : 844,
            "max" : [
                0.2474338561296463,
                0,
                -0.027617432177066803
            ],
            "min" : [
                0.00430289376527071,
                -0.01600000075995922,
                -0.07534439861774445
            ],
            "type" : "VEC3"
        },
        {
            "bufferView" : 13,
            "componentType" : 5126,
            "count" : 844,
            "type" : "VEC3"
        },
        {
            "bufferView" : 14,
            "componentType" : 5126,
            "count" : 844,
            "type" : "VEC2"
        },
        {
            "bufferView" : 15,
            "componentType" : 5123,
            "count" : 1662,
            "type" : "SCALAR"
        },
        {
            "bufferView" : 16,
            "componentType" : 5126,
            "count" : 918,
            "max" : [
                0.2472391426563263,
                0,
                -0.02821943908929825
            ],
            "min" : [
                0.004266482777893543,
                -0.01600000075995922,
                -0.07516440749168396
            ],
            "type" : "VEC3"
        },
        {
            "bufferView" : 17,
            "componentType" : 5126,
            "count" : 918,
            "type" : "VEC3"
        },
        {
            "bufferView" : 18,
            "componentType" : 5126,
            "count" : 918,
            "type" : "VEC2"
        },
        {
            "bufferView" : 19,
            "componentType" : 5123,
            "count" : 1782,
            "type" : "SCALAR"
        },
        {
            "bufferView" : 20,
            "componentType" : 5126,
            "count" : 862,
            "max" : [
                0.24714180827140808,
                0,
                -0.02861001342535019
            ],
            "min" : [
                0.0042631193064153194,
                -0.01600000075995922,
                -0.07521644234657288
            ],
            "type" : "VEC3"
        },
        {
            "bufferView" : 21,
            "componentType" : 5126,
            "count" : 862,
            "type" : "VEC3"
        },
        {
            "bufferView" : 22,
            "componentType" : 5126,
            "count" : 862,
            "type" : "VEC2"
        },
        {
            "bufferView" : 23,
            "componentType" : 5123,
            "count" : 1686,
            "type" : "SCALAR"
        },
        {
            "bufferView" : 24,
            "componentType" : 5126,
            "count" : 858,
            "max" : [
                0.24627546966075897,
                0,
                -0.028609149158000946
            ],
            "min" : [
                0.0042631193064153194,
                -0.01600000075995922,
                -0.07536570727825165
            ],
            "type" : "VEC3"
        },
        {
            "bufferView" : 25,
            "componentType" : 5126,
            "count" : 858,
            "type" : "VEC3"
        },
        {
            "bufferView" : 26,
            "componentType" : 5126,
            "count" : 858,
            "type" : "VEC2"
        },
        {
            "bufferView" : 27,
            "componentType" : 5123,
            "count" : 1674,
            "type" : "SCALAR"
        }
    ],
    "bufferViews" : [
        {
            "buffer" : 0,
            "byteLength" : 9816,
            "byteOffset" : 0
        },
        {
            "buffer" : 0,
            "byteLength" : 9816,
            "byteOffset" : 9816
        },
        {
            "buffer" : 0,
            "byteLength" : 6544,
            "byteOffset" : 19632
        },
        {
            "buffer" : 0,
            "byteLength" : 3336,
            "byteOffset" : 26176
        },
        {
            "buffer" : 0,
            "byteLength" : 10560,
            "byteOffset" : 29512
        },
        {
            "buffer" : 0,
            "byteLength" : 10560,
            "byteOffset" : 40072
        },
        {
            "buffer" : 0,
            "byteLength" : 7040,
            "byteOffset" : 50632
        },
        {
            "buffer" : 0,
            "byteLength" : 3480,
            "byteOffset" : 57672
        },
        {
            "buffer" : 0,
            "byteLength" : 10104,
            "byteOffset" : 61152
        },
        {
            "buffer" : 0,
            "byteLength" : 10104,
            "byteOffset" : 71256
        },
        {
            "buffer" : 0,
            "byteLength" : 6736,
            "byteOffset" : 81360
        },
        {
            "buffer" : 0,
            "byteLength" : 3276,
            "byteOffset" : 88096
        },
        {
            "buffer" : 0,
            "byteLength" : 10128,
            "byteOffset" : 91372
        },
        {
            "buffer" : 0,
            "byteLength" : 10128,
            "byteOffset" : 101500
        },
        {
            "buffer" : 0,
            "byteLength" : 6752,
            "byteOffset" : 111628
        },
        {
            "buffer" : 0,
            "byteLength" : 3324,
            "byteOffset" : 118380
        },
        {
            "buffer" : 0,
            "byteLength" : 11016,
            "byteOffset" : 121704
        },
        {
            "buffer" : 0,
            "byteLength" : 11016,
            "byteOffset" : 132720
        },
        {
            "buffer" : 0,
            "byteLength" : 7344,
            "byteOffset" : 143736
        },
        {
            "buffer" : 0,
            "byteLength" : 3564,
            "byteOffset" : 151080
        },
        {
            "buffer" : 0,
            "byteLength" : 10344,
            "byteOffset" : 154644
        },
        {
            "buffer" : 0,
            "byteLength" : 10344,
            "byteOffset" : 164988
        },
        {
            "buffer" : 0,
            "byteLength" : 6896,
            "byteOffset" : 175332
        },
        {
            "buffer" : 0,
            "byteLength" : 3372,
            "byteOffset" : 182228
        },
        {
            "buffer" : 0,
            "byteLength" : 10296,
            "byteOffset" : 185600
        },
        {
            "buffer" : 0,
            "byteLength" : 10296,
            "byteOffset" : 195896
        },
        {
            "buffer" : 0,
            "byteLength" : 6864,
            "byteOffset" : 206192
        },
        {
            "buffer" : 0,
            "byteLength" : 3348,
            "byteOffset" : 213056
        }
    ],
    "buffers" : [
        {
            "byteLength" : 216404,
            "uri" : "data:application/octet-stream;base64,"
        }
    ]
}
